<svg width="28" height="28" viewBox="0 0 28 28" fill="none" xmlns="http://www.w3.org/2000/svg">
<path d="M19.105 14.8129L27.4699 13.6774L19.4148 12.6452L26.5404 8.67097L18.3305 10.6839L23.4423 3.97419L16.988 8.92903L19.2083 1.13548L14.8709 8.36129L13.7349 0L12.6506 8.05161L8.72633 0.929032L10.7401 9.13548L4.02754 3.97419L8.98451 10.4774L1.18761 8.20645L8.41652 12.5935L0 13.6774L8.10671 14.7613L0.981067 18.7355L9.19105 16.671L4.02754 23.3806L10.5336 18.4258L8.26162 26.271L12.6506 19.0452L13.7349 27.4065L14.8193 19.3548L18.7952 26.4774L16.7298 18.271L23.4423 23.3806L18.4854 16.929L26.3339 19.1484L19.105 14.8129Z" fill="white"/>
</svg>
