<svg width="34" height="39" viewBox="0 0 34 39" fill="none" xmlns="http://www.w3.org/2000/svg">
<g clip-path="url(#clip0)">
<path d="M18.0928 19.676V39.0001H20.338V18.8442L18.0928 19.676Z" fill="#AB7051"/>
<path d="M4.53027 24.666V35.5723C4.53127 36.4811 4.8888 37.3524 5.52443 37.995C6.16006 38.6376 7.02187 38.9991 7.92078 39.0001H15.8169V20.5078L4.53027 24.666Z" fill="#AB7051"/>
<path d="M22.6133 18.2812V39H30.5245C30.9688 38.9992 31.4086 38.9099 31.8187 38.7372C32.2289 38.5644 32.6013 38.3117 32.9148 37.9933C33.2283 37.675 33.4766 37.2973 33.6457 36.8819C33.8147 36.4665 33.9011 36.0215 33.8999 35.5723V18.2812H22.6133Z" fill="#AB7051"/>
<path d="M32.069 6.02292C31.7613 5.16886 31.1308 4.47329 30.3159 4.08918C29.5011 3.70507 28.5687 3.66388 27.7238 3.97466L18.0654 7.52732L21.3527 16.0449L34.0001 11.3915L32.069 6.02292Z" fill="#AB7051"/>
<path d="M11.6941 9.87158L2.23237 13.3526C1.81345 13.5061 1.42861 13.7417 1.09991 14.0458C0.771219 14.35 0.505135 14.7167 0.316916 15.125C0.128696 15.5333 0.0220433 15.9752 0.00307088 16.4252C-0.0159016 16.8753 0.0531798 17.3247 0.206354 17.7478L2.13894 23.1156L14.9807 18.3929L11.6941 9.87158Z" fill="#AB7051"/>
<path d="M15.9257 8.31445L13.8018 9.09598L17.1192 17.6021L19.2431 16.8206L15.9257 8.31445Z" fill="#AB7051"/>
<path d="M22.3491 0.899396C21.7121 0.428672 20.9658 0.132021 20.1823 0.0381105C19.3987 -0.0557999 18.6045 0.0562063 17.8763 0.363304C17.1481 0.670403 16.5106 1.16221 16.0253 1.79119C15.5401 2.42018 15.2235 3.16507 15.1062 3.95389L14.7295 6.32436L17.1473 5.43391L17.3455 4.29133C17.4052 3.89186 17.5656 3.51468 17.8115 3.19616C18.0573 2.87763 18.3801 2.62851 18.7489 2.47281C19.1176 2.31711 19.5198 2.26009 19.9167 2.30724C20.3136 2.35438 20.6917 2.50412 21.0147 2.74199C21.4186 3.04135 21.6891 3.25234 21.8367 3.70481L23.9464 2.92938C23.645 2.05645 23.1153 1.46688 22.3491 0.899396Z" fill="#AB7051"/>
<path d="M11.9742 4.91059C11.2109 4.21575 10.2378 3.80182 9.21272 3.73587C8.18762 3.66992 7.17052 3.95582 6.32621 4.54723C5.4819 5.13865 4.85983 6.00095 4.5608 6.99442C4.26176 7.98789 4.30327 9.05433 4.6786 10.021L6.78824 9.24554C6.59419 8.75539 6.5695 8.21336 6.71819 7.70726C6.86687 7.20115 7.18022 6.76063 7.60747 6.45704C8.03471 6.15345 8.55083 6.00458 9.0722 6.03455C9.59358 6.06453 10.0897 6.27158 10.4801 6.62218L11.4822 7.51796L13.897 6.62675L11.9742 4.91059Z" fill="#AB7051"/>
</g>
<defs>
<clipPath id="clip0">
<rect width="34" height="39" fill="white"/>
</clipPath>
</defs>
</svg>
