<svg width="35" height="39" viewBox="0 0 35 39" fill="none" xmlns="http://www.w3.org/2000/svg">
<g clip-path="url(#clip0)">
<path d="M15.3032 11.8527C15.8865 12.811 14.3893 13.8085 15.4782 13.8085C16.5671 13.8085 19.756 9.07532 19.756 7.94092C18.8282 9.77319 17.2331 11.1745 15.3032 11.8527Z" fill="#AB7051"/>
<path d="M17.6951 4.32226L17.0923 4.18535C16.8367 4.11145 16.5673 4.09921 16.3061 4.14965C16.0449 4.20008 15.7992 4.31176 15.5889 4.47562C15.3786 4.63949 15.2098 4.85091 15.096 5.09273C14.9822 5.33455 14.9267 5.59995 14.934 5.8674C14.917 6.13968 14.9655 6.41205 15.0751 6.66156C15.1848 6.91107 15.3525 7.1304 15.5641 7.30106C15.7757 7.47171 16.025 7.58869 16.291 7.64213C16.5569 7.69557 16.8318 7.68391 17.0923 7.60812L17.6951 7.47121C18.9006 7.21695 19.8728 6.47372 19.8728 5.84784C19.8728 5.22196 18.9006 4.59608 17.6951 4.32226Z" fill="#AB7051"/>
<path d="M25.6868 4.18535L25.0646 4.32226C23.8979 4.59608 22.9062 5.31975 22.9062 5.94563C22.9062 6.57151 23.8979 7.31474 25.0646 7.569L25.6868 7.72547C25.9487 7.7973 26.2239 7.80542 26.4895 7.74914C26.7552 7.69287 27.0037 7.57383 27.2146 7.40184C27.4254 7.22986 27.5926 7.00988 27.7022 6.76008C27.8119 6.51027 27.8609 6.2378 27.8451 5.96519V5.8674C27.8524 5.59995 27.7969 5.33455 27.6831 5.09273C27.5693 4.85091 27.4004 4.63949 27.1902 4.47562C26.9799 4.31176 26.7342 4.20008 26.473 4.14965C26.2118 4.09921 25.9424 4.11145 25.6868 4.18535Z" fill="#AB7051"/>
<path d="M27.2808 13.6908C28.3502 13.6908 26.853 12.7911 27.4558 11.735C25.5353 11.049 23.9488 9.64922 23.0225 7.82324C23.0225 8.9772 26.2308 13.6908 27.2808 13.6908Z" fill="#AB7051"/>
<path d="M31.9086 6.88486C31.9676 6.60772 32.0066 6.32664 32.0253 6.04384V5.43752C32.2834 3.76211 31.9386 2.04904 31.053 0.606525C30.792 0.333312 30.4644 0.133592 30.1028 0.0272229C29.7412 -0.0791467 29.3582 -0.0884609 28.9919 0.000206124L27.903 0.254469C25.7304 1.03661 23.8042 2.38682 22.3225 4.1662C22.1291 4.1367 21.9325 4.1367 21.7391 4.1662H21.0391C20.8458 4.1367 20.6492 4.1367 20.4558 4.1662C18.9707 2.38185 17.0368 1.03098 14.8558 0.254469L13.7864 0.000206124C13.4201 -0.0884609 13.0371 -0.0791467 12.6755 0.0272229C12.3139 0.133592 11.9863 0.333312 11.7253 0.606525C10.8397 2.04904 10.4949 3.76211 10.753 5.43752V6.10251C10.7343 6.31071 10.7343 6.52019 10.753 6.72839H4.12248C3.04094 6.74881 2.01026 7.19406 1.25082 7.96891C0.491391 8.74377 0.0634818 9.78675 0.0585938 10.8748V16.5468H1.03082V35.0885C1.03082 36.1259 1.44054 37.1209 2.16984 37.8545C2.89915 38.5881 3.88831 39.0002 4.9197 39.0002H30.1975C31.2289 39.0002 32.218 38.5881 32.9473 37.8545C33.6767 37.1209 34.0864 36.1259 34.0864 35.0885V16.5468H35.0586V10.8748C35.0532 9.9511 34.7399 9.05589 34.1688 8.3325C33.5977 7.60911 32.8018 7.09936 31.9086 6.88486ZM25.3364 14.591V29.6316L21.4475 23.764L17.5586 29.6316V14.278C18.8492 12.8368 19.9057 11.1999 20.6891 9.42749C20.8245 9.44785 20.9621 9.44785 21.0975 9.42749H21.7975C21.9328 9.44785 22.0705 9.44785 22.2058 9.42749C22.9893 11.1999 24.0458 12.8368 25.3364 14.278V14.591ZM31.1697 6.04384C31.2032 6.53247 31.1169 7.02189 30.9184 7.46915C30.72 7.91641 30.4154 8.30784 30.0315 8.60907C29.6475 8.91031 29.1959 9.11214 28.7163 9.19687C28.2368 9.28159 27.7438 9.24661 27.2808 9.09499L26.1919 8.84073C25.3474 8.65628 24.5435 8.31824 23.8197 7.84324C25.7082 9.65618 28.0912 10.8615 30.6641 11.3051C29.6336 12.9872 31.8697 16.5664 30.2169 16.6055H30.1003C28.3892 16.4686 23.7225 11.9114 22.6336 7.68677C22.5718 7.87891 22.4565 8.04921 22.3014 8.17747C22.1464 8.30573 21.958 8.38658 21.7586 8.41044H21.0586C20.871 8.40204 20.689 8.34317 20.5317 8.23997C20.3744 8.13677 20.2474 7.99301 20.1642 7.82368C19.0558 12.0484 14.3308 16.6055 12.6975 16.7424C11.0641 16.8793 13.1836 13.1632 12.1336 11.442C14.704 10.9905 17.0848 9.7863 18.978 7.98015C18.2462 8.4489 17.4358 8.78024 16.5864 8.95808L15.6141 9.17323C15.1511 9.32484 14.6582 9.35982 14.1786 9.2751C13.699 9.19038 13.2474 8.98854 12.8635 8.68731C12.4796 8.38607 12.175 7.99465 11.9765 7.54739C11.7781 7.10013 11.6918 6.6107 11.7253 6.12207C11.7253 3.91194 11.4919 0.547849 13.6697 1.01726L14.7586 1.27152C17.0197 2.10486 18.969 3.62157 20.3391 5.61355C20.4141 5.46277 20.5273 5.33456 20.6673 5.24184C20.8072 5.14912 20.9691 5.09518 21.1364 5.08546H21.8364C22.0032 5.09709 22.1642 5.15181 22.3039 5.24431C22.4435 5.33682 22.5571 5.46399 22.6336 5.61355C23.9781 3.63736 25.8915 2.12222 28.1169 1.27152L29.2253 1.01726C31.2864 0.547849 31.053 3.91194 31.053 6.04384H31.1697Z" fill="#AB7051"/>
</g>
<defs>
<clipPath id="clip0">
<rect width="35" height="39" fill="white"/>
</clipPath>
</defs>
</svg>
