<svg width="36" height="40" viewBox="0 0 36 40" fill="none" xmlns="http://www.w3.org/2000/svg">
<g clip-path="url(#clip0)">
<path d="M33.4635 20.3291V37.3885C33.4635 37.7316 33.3957 38.0713 33.264 38.3883C33.1323 38.7053 32.9394 38.9933 32.6961 39.2358C32.4528 39.4783 32.164 39.6707 31.8462 39.8018C31.5283 39.933 31.1877 40.0004 30.8438 40.0002H22.4176C22.3317 40.0002 22.2466 39.9833 22.1672 39.9505C22.0878 39.9176 22.0157 39.8695 21.9549 39.8089C21.8942 39.7482 21.846 39.6762 21.8132 39.597C21.7804 39.5177 21.7636 39.4328 21.7637 39.3471V20.3307C21.7636 20.2449 21.7804 20.1599 21.8132 20.0807C21.846 20.0014 21.8942 19.9293 21.9549 19.8686C22.0156 19.8079 22.0877 19.7597 22.1671 19.7268C22.2465 19.6939 22.3316 19.6769 22.4176 19.6768H32.8087C32.8947 19.6767 32.9798 19.6935 33.0592 19.7262C33.1387 19.7589 33.2108 19.807 33.2716 19.8675C33.3324 19.9281 33.3807 20.0001 33.4136 20.0793C33.4465 20.1585 33.4635 20.2434 33.4635 20.3291Z" fill="#AB7051"/>
<path d="M20.4544 20.3304V39.3468C20.4544 39.5197 20.3856 39.6856 20.2632 39.8081C20.1408 39.9305 19.9746 39.9995 19.8012 39.9999H16.1987C16.025 39.9999 15.8585 39.9311 15.7357 39.8086C15.6129 39.6861 15.5439 39.52 15.5439 39.3468V20.3304C15.5439 20.2446 15.5609 20.1597 15.5938 20.0804C15.6267 20.0012 15.6749 19.9292 15.7357 19.8685C15.7965 19.8079 15.8687 19.7598 15.9481 19.727C16.0276 19.6941 16.1127 19.6772 16.1987 19.6772H19.8012C19.9746 19.6777 20.1408 19.7467 20.2632 19.8691C20.3856 19.9915 20.4544 20.1574 20.4544 20.3304Z" fill="#AB7051"/>
<path d="M16.1805 3.44137C15.5747 3.58609 15.0226 3.89966 14.5888 4.34549C14.1549 4.79132 13.857 5.35104 13.7299 5.95934C13.7189 6.0157 13.6932 6.06818 13.6555 6.11154C13.6178 6.1549 13.5693 6.18763 13.5149 6.20645C13.4605 6.22527 13.4021 6.22953 13.3456 6.21879C13.289 6.20806 13.2363 6.18271 13.1927 6.14528C12.7711 5.76971 12.4712 5.27744 12.3312 4.73122C12.2851 4.56421 12.1743 4.42232 12.0233 4.33676C11.8724 4.25119 11.6935 4.22897 11.5261 4.27497C11.3587 4.32096 11.2164 4.43142 11.1306 4.58204C11.0449 4.73265 11.0226 4.91109 11.0687 5.07809C11.2368 5.71511 11.5526 6.30383 11.9905 6.79684C12.0275 6.83951 12.0528 6.89108 12.0638 6.94645C12.0748 7.00182 12.0711 7.05909 12.0532 7.11263C12.0352 7.16616 12.0036 7.21411 11.9615 7.25175C11.9193 7.2894 11.868 7.31544 11.8127 7.32731C11.208 7.44711 10.6111 7.60365 10.0255 7.79606C9.87717 7.84453 9.75111 7.94434 9.6701 8.07745C9.58909 8.21056 9.55848 8.36819 9.58381 8.52184C9.592 8.5688 9.58984 8.61698 9.57747 8.66303C9.5651 8.70907 9.54283 8.75188 9.51219 8.78846C9.48155 8.82504 9.4433 8.85453 9.40008 8.87487C9.35686 8.8952 9.30971 8.9059 9.26193 8.90622L5.30065 8.96247C5.21758 8.96264 5.13756 8.93123 5.07689 8.87462C5.01622 8.81802 4.97945 8.74047 4.97407 8.65778C4.76418 5.33512 6.7597 0.850747 9.99811 0.105434C12.0234 -0.363316 14.7324 0.741372 16.3715 2.93043C16.4035 2.97408 16.4241 3.02496 16.4315 3.0785C16.4389 3.13205 16.4329 3.18659 16.4139 3.23724C16.395 3.28788 16.3637 3.33304 16.323 3.36867C16.2822 3.4043 16.2333 3.42928 16.1805 3.44137Z" fill="#AB7051"/>
<path d="M13.6629 8.57093V8.74046C13.6629 8.78376 13.6457 8.82529 13.615 8.85591C13.5843 8.88654 13.5426 8.90374 13.4992 8.90374H12.2462C12.2056 8.9036 12.1665 8.88843 12.1365 8.86116C12.1064 8.83389 12.0877 8.79647 12.0838 8.75616C12.0799 8.71586 12.0911 8.67554 12.1153 8.64304C12.1395 8.61055 12.175 8.58819 12.2148 8.5803C12.6307 8.50218 13.0512 8.44593 13.4875 8.40765C13.5099 8.40604 13.5325 8.40906 13.5537 8.41654C13.575 8.42402 13.5944 8.4358 13.6109 8.45112C13.6274 8.46645 13.6405 8.485 13.6494 8.50561C13.6584 8.52623 13.663 8.54846 13.6629 8.57093Z" fill="#AB7051"/>
<path d="M30.7019 8.90627H26.7399C26.6921 8.90584 26.6451 8.89506 26.602 8.87467C26.5588 8.85429 26.5207 8.82479 26.4901 8.78822C26.4596 8.75165 26.4374 8.70888 26.425 8.6629C26.4127 8.61691 26.4106 8.56879 26.4188 8.52189C26.4441 8.36824 26.4135 8.21062 26.3325 8.07751C26.2515 7.9444 26.1254 7.84459 25.977 7.79611C25.3914 7.6038 24.7946 7.44726 24.1898 7.32736C24.1342 7.31602 24.0825 7.29037 24.0399 7.25295C23.9972 7.21553 23.9651 7.16763 23.9468 7.11402C23.9284 7.06041 23.9244 7.00294 23.9352 6.94731C23.9459 6.89168 23.9711 6.83983 24.0082 6.79689C24.446 6.30369 24.7619 5.71506 24.9307 5.07814C24.9535 4.9955 24.9597 4.9092 24.9491 4.82415C24.9384 4.7391 24.9111 4.65698 24.8686 4.58248C24.8262 4.50798 24.7694 4.44254 24.7016 4.38993C24.6337 4.3373 24.5562 4.29853 24.4734 4.2758C24.3905 4.25308 24.304 4.24685 24.2187 4.25748C24.1335 4.26811 24.0512 4.29539 23.9765 4.33775C23.9018 4.38012 23.8362 4.43675 23.7834 4.5044C23.7307 4.57205 23.6918 4.64941 23.669 4.73205C23.5286 5.27789 23.2287 5.76979 22.8076 6.14533C22.764 6.183 22.7114 6.20857 22.6548 6.21948C22.5982 6.23039 22.5398 6.22626 22.4853 6.20749C22.4309 6.18872 22.3823 6.15599 22.3446 6.11258C22.3068 6.06916 22.2812 6.0166 22.2703 5.96018C22.1436 5.35181 21.846 4.79198 21.4122 4.3461C20.9784 3.90022 20.4263 3.58671 19.8205 3.44221C19.7677 3.43011 19.7187 3.40513 19.678 3.3695C19.6372 3.33388 19.606 3.28872 19.5871 3.23807C19.5681 3.18743 19.5621 3.13289 19.5695 3.07934C19.5769 3.02579 19.5975 2.97491 19.6294 2.93127C21.2686 0.743769 23.9776 -0.359356 26.0029 0.106269C29.235 0.850019 31.2353 5.27346 31.0285 8.59924C31.0231 8.68193 30.9864 8.75948 30.9257 8.81608C30.865 8.87269 30.785 8.9041 30.7019 8.90393V8.90627Z" fill="#AB7051"/>
<path d="M23.7546 8.9063H22.5016C22.4582 8.9063 22.4165 8.8891 22.3858 8.85848C22.3551 8.82786 22.3379 8.78633 22.3379 8.74302V8.57349C22.3378 8.55088 22.3424 8.52851 22.3515 8.50778C22.3605 8.48705 22.3738 8.46842 22.3904 8.45307C22.4071 8.43772 22.4267 8.42599 22.4482 8.41861C22.4696 8.41123 22.4923 8.40837 22.5149 8.41021C22.9519 8.44849 23.3717 8.5063 23.7875 8.58286C23.8274 8.59075 23.8628 8.61311 23.887 8.64561C23.9113 8.6781 23.9225 8.71842 23.9186 8.75872C23.9147 8.79903 23.8959 8.83645 23.8659 8.86372C23.8359 8.89099 23.7968 8.90617 23.7562 8.9063H23.7546Z" fill="#AB7051"/>
<path d="M14.2353 20.3307V39.3471C14.2354 39.4328 14.2186 39.5177 14.1858 39.597C14.153 39.6762 14.1048 39.7482 14.0441 39.8089C13.9833 39.8695 13.9112 39.9176 13.8318 39.9505C13.7524 39.9833 13.6673 40.0002 13.5814 40.0002H5.15525C4.46087 40.0002 3.79494 39.725 3.30394 39.2352C2.81295 38.7455 2.53711 38.0812 2.53711 37.3885V20.3291C2.53711 20.2434 2.55405 20.1585 2.58696 20.0793C2.61988 20.0001 2.66812 19.9281 2.72892 19.8675C2.78973 19.807 2.86191 19.7589 2.94134 19.7262C3.02078 19.6935 3.1059 19.6767 3.19184 19.6768H13.5814C13.6674 19.6769 13.7525 19.6939 13.8319 19.7268C13.9113 19.7597 13.9834 19.8079 14.0441 19.8686C14.1048 19.9293 14.153 20.0014 14.1858 20.0807C14.2186 20.1599 14.2354 20.2449 14.2353 20.3307Z" fill="#AB7051"/>
<path d="M21.0265 6.61855V8.41543C21.0265 8.54521 20.9749 8.66968 20.883 8.76153C20.7911 8.85337 20.6664 8.90507 20.5363 8.90527H15.4629C15.3328 8.90507 15.2081 8.85337 15.1162 8.76153C15.0243 8.66968 14.9727 8.54521 14.9727 8.41543V6.61855C14.9726 6.36128 15.0233 6.10651 15.1219 5.86879C15.2205 5.63108 15.3651 5.41507 15.5474 5.23311C15.7298 5.05116 15.9463 4.90682 16.1845 4.80834C16.4228 4.70987 16.6782 4.65918 16.9361 4.65918H19.0631C19.321 4.65918 19.5764 4.70987 19.8147 4.80834C20.0529 4.90682 20.2694 5.05116 20.4518 5.23311C20.6341 5.41507 20.7787 5.63108 20.8773 5.86879C20.9759 6.10651 21.0266 6.36128 21.0265 6.61855Z" fill="#AB7051"/>
<path d="M36 12.8209V15.7592C36 16.1022 35.9323 16.4419 35.8006 16.7588C35.669 17.0757 35.4761 17.3637 35.2329 17.6062C34.9897 17.8488 34.701 18.0411 34.3832 18.1723C34.0655 18.3035 33.725 18.371 33.3811 18.3709H24.7905C24.617 18.3709 24.4505 18.3022 24.3278 18.1799C24.205 18.0576 24.1359 17.8916 24.1357 17.7186V10.8592C24.1359 10.686 24.205 10.52 24.3277 10.3976C24.4505 10.2751 24.6169 10.2063 24.7905 10.2061H33.3811C33.7252 10.2061 34.0659 10.2737 34.3838 10.4051C34.7017 10.5366 34.9906 10.7292 35.2338 10.9721C35.477 11.2149 35.6699 11.5032 35.8013 11.8204C35.9328 12.1377 36.0003 12.4776 36 12.8209Z" fill="#AB7051"/>
<path d="M22.8268 10.9188V17.775C22.8268 17.8607 22.8099 17.9456 22.777 18.0248C22.744 18.104 22.6958 18.176 22.635 18.2366C22.5742 18.2971 22.502 18.3452 22.4226 18.3779C22.3431 18.4107 22.258 18.4275 22.1721 18.4274H13.8266C13.6531 18.4274 13.4867 18.3586 13.3639 18.2363C13.2412 18.114 13.1721 17.9481 13.1719 17.775V10.9188C13.1719 10.7455 13.2409 10.5794 13.3636 10.4569C13.4864 10.3344 13.653 10.2656 13.8266 10.2656H22.1721C22.3457 10.2656 22.5123 10.3344 22.635 10.4569C22.7578 10.5794 22.8268 10.7455 22.8268 10.9188Z" fill="#AB7051"/>
<path d="M11.8635 10.9149V17.7704C11.8626 17.8549 11.8447 17.9385 11.8109 18.016C11.7771 18.0935 11.728 18.1635 11.6666 18.2218C11.6052 18.2801 11.5327 18.3255 11.4533 18.3553C11.374 18.3851 11.2895 18.3987 11.2048 18.3954H2.61814C1.17476 18.3954 0 17.1977 0 15.7571V12.8212C0.000712722 12.4796 0.0691027 12.1415 0.201238 11.8263C0.333374 11.5112 0.526649 11.2252 0.769952 10.9848C1.01326 10.7444 1.30179 10.5544 1.61897 10.4256C1.93614 10.2968 2.27571 10.2319 2.61814 10.2344H11.2127C11.3882 10.2413 11.5542 10.316 11.6756 10.4427C11.7971 10.5693 11.8644 10.7381 11.8635 10.9134V10.9149Z" fill="#AB7051"/>
</g>
<defs>
<clipPath id="clip0">
<rect width="36" height="40" fill="white"/>
</clipPath>
</defs>
</svg>
