<svg width="41" height="40" viewBox="0 0 41 40" fill="none" xmlns="http://www.w3.org/2000/svg">
<g clip-path="url(#clip0)">
<path d="M15.7643 7.01569V7.02548H19.8267V3.10057C19.8267 1.27469 18.4896 0 16.6297 0C14.8884 0 13.4336 1.59679 13.4336 3.55875C13.4326 5.15848 14.4128 6.61527 15.7643 7.01569Z" fill="#AB7051"/>
<path d="M27.1468 5.67171C27.1468 4.10527 25.8165 2.82666 24.271 2.82666C22.7902 2.82666 21.5071 4.10625 21.4251 5.61884C21.4184 5.7373 21.3711 5.84793 21.3711 5.94583V7.0257H26.7619C26.9625 6.63507 27.1468 6.14066 27.1468 5.67171Z" fill="#AB7051"/>
<path d="M19.8257 8.58986H9.69625C9.44545 8.58883 9.19693 8.63813 8.96497 8.73494C8.73302 8.83174 8.52222 8.97414 8.34469 9.15393C8.16717 9.33373 8.02643 9.54737 7.93057 9.78257C7.83471 10.0178 7.78563 10.2699 7.78614 10.5244V14.7489H19.8257V8.58986Z" fill="#AB7051"/>
<path d="M33.6981 10.5244C33.6981 9.44747 32.7546 8.58984 31.6963 8.58984H21.3672V14.7489H33.6981V10.5244Z" fill="#AB7051"/>
<path d="M9.51758 25.7043C11.8574 24.971 14.3736 25.0697 16.6506 25.9843L17.2931 26.2408C18.1926 26.5975 19.1595 26.7447 20.1226 26.6716L26.1433 26.2026C27.077 26.131 28.0126 26.3128 28.8541 26.7293C29.6957 27.1458 30.4129 27.7821 30.9321 28.5728L31.5804 28.189V16.3135H9.51758V25.7043Z" fill="#AB7051"/>
<path d="M37.9588 26.0615L37.9414 26.0732L31.5657 29.9981C31.6718 30.3623 31.7401 30.7367 31.7692 31.1152C31.785 31.3215 31.7196 31.5257 31.5875 31.6833C31.4554 31.8409 31.2672 31.939 31.064 31.9562L21.1758 32.7189H21.116C20.9207 32.7125 20.735 32.6312 20.5965 32.4914C20.4579 32.3516 20.3768 32.1636 20.3694 31.9655C20.3621 31.7673 20.4291 31.5737 20.5569 31.4237C20.6847 31.2737 20.8638 31.1785 21.0581 31.1573L30.0993 30.4593C29.8586 29.6312 29.3456 28.9119 28.6457 28.4211C27.9458 27.9303 27.1014 27.6977 26.253 27.7621L20.24 28.2281C19.0464 28.3189 17.8479 28.1363 16.7333 27.6935L16.0899 27.438C14.5495 26.8195 12.8734 26.6334 11.2377 26.8992C9.602 27.165 8.067 27.873 6.79395 28.9486L7.44995 37.7324L8.36352 37.1039C9.33957 36.4311 10.5349 36.1692 11.6975 36.3736L22.1685 38.1975C24.1617 38.3953 26.1656 37.9499 27.895 36.9247L41.0005 26.2191C40.5739 25.8723 40.0506 25.6704 39.5047 25.6421C38.9588 25.6138 38.4179 25.7605 37.9588 26.0615Z" fill="#AB7051"/>
<path d="M0 26.8755L5.05699 26.4839L6.04389 39.6077L0.987859 39.9993L0 26.8755Z" fill="#AB7051"/>
</g>
<defs>
<clipPath id="clip0">
<rect width="41" height="40" fill="white"/>
</clipPath>
</defs>
</svg>
