<svg width="76" height="76" viewBox="0 0 76 76" fill="none" xmlns="http://www.w3.org/2000/svg">
<path d="M53.136 41.2003L76 38.0777L53.9828 35.239L73.4595 24.31L51.0189 29.8455L64.9914 11.3939L47.3494 25.0197L53.4182 3.58742L41.5628 23.4584L38.4578 0.464844L35.494 22.6068L24.7676 3.01968L30.2719 25.5874L11.9243 11.3939L25.4733 29.2777L4.16178 23.0326L23.9208 35.0971L0.915649 38.0777L23.074 41.0584L3.59723 51.9874L26.0379 46.31L11.9243 64.7616L29.7074 51.1358L23.4974 72.71L35.494 52.839L38.4578 75.8326L41.4217 53.6907L52.2891 73.2778L46.6437 50.71L64.9914 64.7616L51.4423 47.0197L72.895 53.1229L53.136 41.2003Z" fill="white"/>
</svg>
