<svg width="41" height="39" viewBox="0 0 41 39" fill="none" xmlns="http://www.w3.org/2000/svg">
<circle cx="19" cy="20" r="19" fill="#EEE6DC"/>
<g clip-path="url(#clip0)">
<path d="M38.5346 16.8858V9.47021H36.894C36.6748 9.47021 36.4646 9.38316 36.3097 9.22819C36.1547 9.07322 36.0677 8.86304 36.0677 8.64389C36.0677 8.42473 36.1547 8.21455 36.3097 8.05958C36.4646 7.90462 36.6748 7.81756 36.894 7.81756H38.5346V2.46584H34.8268C34.8268 1.81069 34.5665 1.18238 34.1033 0.71912C33.64 0.255862 33.0117 -0.00439453 32.3566 -0.00439453C31.7014 -0.00439453 31.0731 0.255862 30.6098 0.71912C30.1466 1.18238 29.8863 1.81069 29.8863 2.46584H22.4707V4.10646C22.4707 4.32562 22.3836 4.5358 22.2287 4.69077C22.0737 4.84573 21.8635 4.93279 21.6444 4.93279C21.4252 4.93279 21.215 4.84573 21.0601 4.69077C20.9051 4.5358 20.818 4.32562 20.818 4.10646V2.46584H15.4663V6.17365C14.8112 6.17365 14.1829 6.43391 13.7196 6.89717C13.2563 7.36043 12.9961 7.98874 12.9961 8.64389C12.9961 9.29903 13.2563 9.92735 13.7196 10.3906C14.1829 10.8539 14.8112 11.1141 15.4663 11.1141V18.5297H17.107C17.3261 18.5297 17.5363 18.6168 17.6913 18.7718C17.8462 18.9267 17.9333 19.1369 17.9333 19.3561C17.9333 19.5752 17.8462 19.7854 17.6913 19.9404C17.5363 20.0953 17.3261 20.1824 17.107 20.1824H15.4663V25.5341H19.1741C19.1741 26.1893 19.4344 26.8176 19.8977 27.2808C20.3609 27.7441 20.9892 28.0044 21.6444 28.0044C22.2995 28.0044 22.9278 27.7441 23.3911 27.2808C23.8544 26.8176 24.1146 26.1893 24.1146 25.5341H31.5302V23.8935C31.5302 23.6743 31.6173 23.4642 31.7723 23.3092C31.9272 23.1542 32.1374 23.0672 32.3566 23.0672C32.5757 23.0672 32.7859 23.1542 32.9409 23.3092C33.0958 23.4642 33.1829 23.6743 33.1829 23.8935V25.5341H38.5346V21.8263C39.1898 21.8263 39.8181 21.5661 40.2813 21.1028C40.7446 20.6395 41.0048 20.0112 41.0048 19.3561C41.0048 18.7009 40.7446 18.0726 40.2813 17.6094C39.8181 17.1461 39.1898 16.8858 38.5346 16.8858ZM31.5302 4.10975V2.46912C31.5302 2.24997 31.6173 2.03979 31.7723 1.88482C31.9272 1.72985 32.1374 1.64279 32.3566 1.64279C32.5757 1.64279 32.7859 1.72985 32.9409 1.88482C33.0958 2.03979 33.1829 2.24997 33.1829 2.46912V4.10975H36.8907V6.17365C36.2356 6.17365 35.6072 6.43391 35.144 6.89717C34.6807 7.36043 34.4205 7.98874 34.4205 8.64389C34.4205 9.29903 34.6807 9.92735 35.144 10.3906C35.6072 10.8539 36.2356 11.1141 36.8907 11.1141V13.1797H33.1829V14.8203C33.1829 15.0394 33.0958 15.2496 32.9409 15.4046C32.7859 15.5596 32.5757 15.6466 32.3566 15.6466C32.1374 15.6466 31.9272 15.5596 31.7723 15.4046C31.6173 15.2496 31.5302 15.0394 31.5302 14.8203V13.1797H27.8208V11.1141C28.4759 11.1141 29.1042 10.8539 29.5675 10.3906C30.0308 9.92735 30.291 9.29903 30.291 8.64389C30.291 7.98874 30.0308 7.36043 29.5675 6.89717C29.1042 6.43391 28.4759 6.17365 27.8208 6.17365V4.10975H31.5302ZM14.6444 8.64389C14.6454 8.42529 14.7329 8.21598 14.8877 8.06167C15.0425 7.90736 15.2521 7.82058 15.4707 7.82029H17.1113V4.10975H19.1752C19.1752 4.76489 19.4355 5.39321 19.8987 5.85647C20.362 6.31972 20.9903 6.57998 21.6455 6.57998C22.3006 6.57998 22.9289 6.31972 23.3922 5.85647C23.8554 5.39321 24.1157 4.76489 24.1157 4.10975H26.1802V7.82029H27.8208C28.0399 7.82029 28.2501 7.90735 28.4051 8.06232C28.56 8.21729 28.6471 8.42747 28.6471 8.64662C28.6471 8.86578 28.56 9.07596 28.4051 9.23092C28.2501 9.38589 28.0399 9.47295 27.8208 9.47295H26.1802V13.1797H24.1146C24.1146 12.5245 23.8544 11.8962 23.3911 11.4329C22.9278 10.9697 22.2995 10.7094 21.6444 10.7094C20.9892 10.7094 20.3609 10.9697 19.8977 11.4329C19.4344 11.8962 19.1741 12.5245 19.1741 13.1797H17.1102V9.47186H15.4696C15.2505 9.47157 15.0405 9.38441 14.8856 9.22951C14.7307 9.07461 14.6436 8.86459 14.6433 8.64553L14.6444 8.64389ZM22.4707 23.8902V25.5308C22.4707 25.75 22.3836 25.9602 22.2287 26.1151C22.0737 26.2701 21.8635 26.3572 21.6444 26.3572C21.4252 26.3572 21.215 26.2701 21.0601 26.1151C20.9051 25.9602 20.818 25.75 20.818 25.5308V23.8902H17.1102V21.8263C17.7654 21.8263 18.3937 21.5661 18.857 21.1028C19.3202 20.6395 19.5805 20.0112 19.5805 19.3561C19.5805 18.7009 19.3202 18.0726 18.857 17.6094C18.3937 17.1461 17.7654 16.8858 17.1102 16.8858V14.8203H20.8208V13.1797C20.8208 12.9605 20.9078 12.7503 21.0628 12.5954C21.2178 12.4404 21.428 12.3533 21.6471 12.3533C21.8663 12.3533 22.0764 12.4404 22.2314 12.5954C22.3864 12.7503 22.4734 12.9605 22.4734 13.1797V14.8203H26.1802V16.8842C25.525 16.8842 24.8967 17.1445 24.4334 17.6077C23.9702 18.071 23.7099 18.6993 23.7099 19.3544C23.7099 20.0096 23.9702 20.6379 24.4334 21.1012C24.8967 21.5644 25.525 21.8247 26.1802 21.8247V23.8886L22.4707 23.8902ZM38.5302 20.1824H36.8896V23.8902H34.8268C34.8268 23.2351 34.5665 22.6068 34.1033 22.1435C33.64 21.6802 33.0117 21.42 32.3566 21.42C31.7014 21.42 31.0731 21.6802 30.6098 22.1435C30.1466 22.6068 29.8863 23.2351 29.8863 23.8902H27.8208V20.1824H26.1802C25.961 20.1824 25.7508 20.0953 25.5959 19.9404C25.4409 19.7854 25.3538 19.5752 25.3538 19.3561C25.3538 19.1369 25.4409 18.9267 25.5959 18.7718C25.7508 18.6168 25.961 18.5297 26.1802 18.5297H27.8208V14.8203H29.8847C29.8847 15.4754 30.1449 16.1038 30.6082 16.567C31.0715 17.0303 31.6998 17.2905 32.3549 17.2905C33.0101 17.2905 33.6384 17.0303 34.1016 16.567C34.5649 16.1038 34.8252 15.4754 34.8252 14.8203H36.8891V18.5281H38.5297C38.7488 18.5281 38.959 18.6152 39.114 18.7701C39.269 18.9251 39.356 19.1353 39.356 19.3544C39.356 19.5736 39.269 19.7838 39.114 19.9387C38.959 20.0937 38.7488 20.1808 38.5297 20.1808L38.5302 20.1824Z" fill="black"/>
</g>
<defs>
<clipPath id="clip0">
<rect width="28" height="28" fill="white" transform="translate(13)"/>
</clipPath>
</defs>
</svg>
