<svg width="42" height="41" viewBox="0 0 42 41" fill="none" xmlns="http://www.w3.org/2000/svg">
<circle cx="19" cy="22" r="19" fill="#EEE6DC"/>
<path d="M39.2019 5.67369H35.8995C36.228 5.09897 36.4013 4.44669 36.4018 3.78255C36.4023 3.11842 36.23 2.46587 35.9024 1.89063C35.5748 1.31539 35.1034 0.837761 34.5356 0.505851C33.9678 0.173942 33.3237 -0.000531283 32.6682 1.21525e-06C31.7436 0.000344605 30.8335 0.232618 30.0192 0.676086C29.2048 1.11955 28.5115 1.76042 28.0011 2.54147C27.4908 1.76042 26.7974 1.11955 25.9831 0.676086C25.1687 0.232618 24.2586 0.000344605 23.3341 1.21525e-06C22.6786 -0.000531283 22.0345 0.173942 21.4667 0.505851C20.8989 0.837761 20.4274 1.31539 20.0998 1.89063C19.7722 2.46587 19.6 3.11842 19.6005 3.78255C19.601 4.44669 19.7742 5.09897 20.1027 5.67369H16.8003C16.0579 5.67459 15.3462 5.97379 14.8212 6.50566C14.2962 7.03753 14.0009 7.75864 14 8.51082V12.9237C14 13.1746 14.0984 13.4152 14.2735 13.5925C14.4485 13.7699 14.686 13.8696 14.9336 13.8696H15.8695V26.1606C15.8696 26.9123 16.164 27.6334 16.6879 28.1656C17.2119 28.6978 17.9228 28.9979 18.6648 29H37.3374C38.079 28.9979 38.7896 28.6982 39.3135 28.1664C39.8374 27.6346 40.132 26.9142 40.1327 26.1629V13.8719H41.0664C41.314 13.8719 41.5515 13.7722 41.7265 13.5948C41.9016 13.4174 42 13.1768 42 12.926V8.51082C41.9991 7.75904 41.7041 7.03827 41.1796 6.50646C40.6551 5.97466 39.9439 5.67519 39.2019 5.67369ZM23.3341 1.89123C24.3239 1.89228 25.2729 2.29113 25.9729 3.00025C26.6728 3.70937 27.0665 4.67084 27.0675 5.67369H23.3341C22.839 5.67369 22.3642 5.47444 22.0141 5.11976C21.664 4.76509 21.4674 4.28405 21.4674 3.78246C21.4674 3.28088 21.664 2.79983 22.0141 2.44516C22.3642 2.09049 22.839 1.89123 23.3341 1.89123ZM25.2008 27.1088H18.6648C18.4173 27.1085 18.1801 27.0087 18.0052 26.8314C17.8302 26.654 17.7319 26.4136 17.7317 26.1629V13.8719H25.2008V27.1088ZM25.2008 11.9784H15.8695V8.51082C15.8698 8.26019 15.9682 8.01992 16.1431 7.8427C16.318 7.66548 16.5552 7.56579 16.8026 7.56549H25.2008V11.9784ZM28.9348 27.1088H27.068V13.8696H28.9348V27.1088ZM28.9348 11.9784H27.068V7.56549H28.9348V11.9784ZM32.6682 1.89123C33.1632 1.89123 33.638 2.09049 33.9881 2.44516C34.3382 2.79983 34.5349 3.28088 34.5349 3.78246C34.5349 4.28405 34.3382 4.76509 33.9881 5.11976C33.638 5.47444 33.1632 5.67369 32.6682 5.67369H28.9348C28.9358 4.67084 29.3295 3.70937 30.0294 3.00025C30.7293 2.29113 31.6783 1.89228 32.6682 1.89123ZM38.2683 26.1629C38.2681 26.4132 38.1701 26.6533 37.9956 26.8306C37.8212 27.0078 37.5845 27.1079 37.3374 27.1088H30.8015V13.8696H38.2683V26.1606V26.1629ZM40.1327 11.9784H30.7964V7.56549H39.2019C39.4489 7.56639 39.6855 7.66634 39.8599 7.8435C40.0344 8.02065 40.1324 8.26059 40.1327 8.51082V11.9784Z" fill="black"/>
</svg>
