<svg width="41" height="38" viewBox="0 0 41 38" fill="none" xmlns="http://www.w3.org/2000/svg">
<circle cx="19" cy="19" r="19" fill="#EEE6DC"/>
<g clip-path="url(#clip0)">
<path d="M38.5391 1H15.4609C14.8085 1.00072 14.1829 1.25775 13.7216 1.71472C13.2602 2.17168 13.0007 2.79125 13 3.4375V19.6875C13.0007 20.3337 13.2602 20.9533 13.7216 21.4103C14.1829 21.8672 14.8085 22.1243 15.4609 22.125H17.9766V26.1875C17.9765 26.3483 18.0246 26.5054 18.1147 26.6391C18.2048 26.7728 18.333 26.877 18.4829 26.9385C18.6328 27 18.7978 27.0161 18.957 26.9847C19.1162 26.9534 19.2624 26.8759 19.3771 26.7622L24.0584 22.125H38.5391C39.1915 22.1243 39.817 21.8672 40.2784 21.4103C40.7398 20.9533 40.9993 20.3337 41 19.6875V3.4375C40.9993 2.79125 40.7398 2.17168 40.2784 1.71472C39.817 1.25775 39.1915 1.00072 38.5391 1ZM39.3594 19.6875C39.3594 19.903 39.2729 20.1097 39.1191 20.262C38.9653 20.4144 38.7566 20.5 38.5391 20.5H23.7188C23.611 20.5 23.5043 20.5209 23.4048 20.5617C23.3052 20.6025 23.2147 20.6624 23.1385 20.7378L19.6172 24.2261V21.3125C19.6172 21.097 19.5308 20.8904 19.3769 20.738C19.2231 20.5856 19.0144 20.5 18.7969 20.5H15.4609C15.2434 20.5 15.0347 20.4144 14.8809 20.262C14.7271 20.1097 14.6406 19.903 14.6406 19.6875V3.4375C14.6406 3.22201 14.7271 3.01535 14.8809 2.86298C15.0347 2.7106 15.2434 2.625 15.4609 2.625H38.5391C38.7566 2.625 38.9653 2.7106 39.1191 2.86298C39.2729 3.01535 39.3594 3.22201 39.3594 3.4375V19.6875Z" fill="black"/>
<path d="M32.5541 7.10755C32.2166 6.73444 31.8028 6.43675 31.3402 6.23428C30.8776 6.0318 30.3768 5.92917 29.8711 5.93322C28.7292 5.93322 27.7383 6.44835 27 7.42443C26.2617 6.44943 25.2708 5.93322 24.1289 5.93322C21.9961 5.93322 20.4375 7.67197 20.4375 9.79855C20.4375 10.9019 20.8684 11.9111 21.7943 12.9814C22.8558 14.2061 24.5052 15.4476 26.4663 17.1121C26.6149 17.2383 26.8042 17.3077 27 17.3077C27.1958 17.3077 27.3851 17.2383 27.5338 17.1121C29.4921 15.4498 31.1431 14.2066 32.2057 12.9819C33.131 11.9132 33.5625 10.9019 33.5625 9.79855C33.5625 8.77968 33.2043 7.82526 32.5541 7.10755ZM27.9641 14.6281C27.6513 14.887 27.332 15.1513 27 15.4286C26.668 15.1513 26.3487 14.887 26.0359 14.6281C23.5678 12.5876 22.0781 11.3558 22.0781 9.79855C22.0781 8.5213 22.9597 7.55822 24.1289 7.55822C25.6492 7.55822 26.1873 9.32514 26.2109 9.4053C26.2598 9.57552 26.3635 9.72525 26.5062 9.83174C26.6489 9.93823 26.8228 9.99566 27.0015 9.99529C27.1802 9.99492 27.3539 9.93678 27.4961 9.8297C27.6384 9.72262 27.7415 9.57247 27.7897 9.40205C27.7952 9.38364 28.3289 7.56039 29.8711 7.56039C31.0403 7.56039 31.9219 8.52347 31.9219 9.80072C31.9219 11.3558 30.4322 12.5876 27.9641 14.6281Z" fill="black"/>
</g>
<defs>
<clipPath id="clip0">
<rect width="28" height="26" fill="white" transform="translate(13 1)"/>
</clipPath>
</defs>
</svg>
