<svg width="41" height="38" viewBox="0 0 41 38" fill="none" xmlns="http://www.w3.org/2000/svg">
<circle cx="19" cy="19" r="19" fill="#EEE6DC"/>
<g clip-path="url(#clip0)">
<path d="M24.4901 10.43C24.5207 10.5936 24.6086 10.7419 24.7389 10.8498C24.8692 10.9576 25.0339 11.0184 25.2051 11.0218C25.4155 11.0175 25.6155 10.9323 25.7612 10.7849L26.1528 10.4036L27.7042 11.9101C27.8745 12.0753 28.1053 12.1681 28.346 12.1681C28.5867 12.1681 28.8176 12.0753 28.9879 11.9101L30.1432 10.7882C30.3134 10.6229 30.4089 10.3987 30.4089 10.165C30.4089 9.93127 30.3134 9.7071 30.1432 9.54178L28.5918 8.03528L28.9844 7.65507C29.0878 7.56588 29.1631 7.45011 29.2017 7.32113C29.2402 7.19214 29.2403 7.05521 29.2021 6.92615C29.1639 6.79708 29.0889 6.68114 28.9857 6.59172C28.8825 6.5023 28.7554 6.44304 28.619 6.42078L24.4753 5.49836C24.3322 5.46276 24.1816 5.46726 24.041 5.51134C23.9004 5.55542 23.7756 5.63727 23.6809 5.74743C23.6073 5.84007 23.5564 5.94774 23.5321 6.0623C23.5077 6.17685 23.5105 6.29529 23.5402 6.40866L24.4901 10.43ZM27.6974 7.3443L27.6293 7.41042C27.4592 7.57574 27.3636 7.7999 27.3636 8.03363C27.3636 8.26735 27.4592 8.49151 27.6293 8.65684L29.1797 10.1633L28.3466 10.9733L26.7952 9.46684C26.6249 9.30163 26.394 9.20882 26.1533 9.20882C25.9126 9.20882 25.6818 9.30163 25.5115 9.46684L25.4434 9.53297L24.7727 6.69299L27.6974 7.3443Z" fill="#000002"/>
<path d="M39.0865 14.825V2.48205C39.0859 1.8246 38.8167 1.19424 38.3379 0.729347C37.8591 0.264456 37.21 0.00302503 36.5329 0.00244141H17.466C16.789 0.00331615 16.14 0.264841 15.6613 0.729669C15.1826 1.1945 14.9133 1.82469 14.9124 2.48205V14.825C14.3992 14.8438 13.9134 15.0548 13.5569 15.4137C13.2004 15.7726 13.0008 16.2516 13 16.7503V18.0728C13.0009 18.584 13.2104 19.074 13.5827 19.4355C13.955 19.797 14.4597 20.0005 14.9861 20.0013H39.0139C39.5403 20.0005 40.045 19.797 40.4173 19.4355C40.7896 19.074 40.9991 18.584 41 18.0728V16.7503C40.9992 16.2514 40.7994 15.7723 40.4427 15.4133C40.0859 15.0544 39.5999 14.8435 39.0865 14.825ZM17.4671 1.65441H36.534C36.7598 1.65441 36.9763 1.7415 37.1359 1.8965C37.2955 2.05151 37.3852 2.26174 37.3852 2.48095V14.8239H16.6159V2.48095C16.6162 2.26183 16.706 2.05177 16.8655 1.89682C17.0251 1.74188 17.2414 1.65471 17.4671 1.65441ZM39.2976 18.075C39.2967 18.1478 39.2665 18.2173 39.2135 18.2688C39.1605 18.3203 39.0888 18.3496 39.0139 18.3505H14.9861C14.9113 18.3493 14.8398 18.3199 14.7868 18.2685C14.7338 18.2171 14.7036 18.1477 14.7024 18.075V16.7525C14.7033 16.6797 14.7335 16.6101 14.7865 16.5586C14.8395 16.5071 14.9112 16.4778 14.9861 16.477H39.0139C39.0888 16.4778 39.1605 16.5071 39.2135 16.5586C39.2665 16.6101 39.2967 16.6797 39.2976 16.7525V18.075Z" fill="#000002"/>
</g>
<defs>
<clipPath id="clip0">
<rect width="28" height="20" fill="white" transform="translate(13)"/>
</clipPath>
</defs>
</svg>
