<svg width="41" height="39" viewBox="0 0 41 39" fill="none" xmlns="http://www.w3.org/2000/svg">
<circle cx="19" cy="20" r="19" fill="#EEE6DC"/>
<g clip-path="url(#clip0)">
<path d="M27 0C24.2311 0 21.5243 0.821085 19.222 2.35942C16.9197 3.89776 15.1253 6.08426 14.0657 8.64243C13.0061 11.2006 12.7288 14.0155 13.269 16.7313C13.8092 19.447 15.1426 21.9415 17.1005 23.8995C19.0584 25.8574 21.553 27.1908 24.2687 27.731C26.9845 28.2712 29.7994 27.9939 32.3576 26.9343C34.9157 25.8747 37.1022 24.0803 38.6406 21.778C40.1789 19.4757 41 16.7689 41 14C40.9958 10.2883 39.5194 6.72976 36.8948 4.10517C34.2702 1.48057 30.7117 0.00422065 27 0V0ZM27.92 26.1281V24.2525C27.92 24.0085 27.8231 23.7745 27.6505 23.602C27.478 23.4294 27.244 23.3325 27 23.3325C26.756 23.3325 26.522 23.4294 26.3495 23.602C26.1769 23.7745 26.08 24.0085 26.08 24.2525V26.1281C23.1826 25.9046 20.4606 24.6524 18.4056 22.5977C16.3507 20.5429 15.0982 17.8211 14.8744 14.9237H16.7463C16.9903 14.9237 17.2243 14.8267 17.3968 14.6542C17.5693 14.4817 17.6663 14.2477 17.6663 14.0037C17.6663 13.7597 17.5693 13.5257 17.3968 13.3531C17.2243 13.1806 16.9903 13.0837 16.7463 13.0837H14.8744C15.0979 10.1861 16.3503 7.46393 18.4053 5.40893C20.4603 3.35393 23.1824 2.10156 26.08 1.87803V3.74625C26.08 3.99025 26.1769 4.22426 26.3495 4.39679C26.522 4.56933 26.756 4.66626 27 4.66626C27.244 4.66626 27.478 4.56933 27.6505 4.39679C27.8231 4.22426 27.92 3.99025 27.92 3.74625V1.87435C30.818 2.09732 33.5408 3.34944 35.5963 5.40449C37.6518 7.45955 38.9045 10.182 39.1281 13.08H37.2525C37.0085 13.08 36.7745 13.1769 36.602 13.3495C36.4294 13.522 36.3325 13.756 36.3325 14C36.3325 14.244 36.4294 14.478 36.602 14.6505C36.7745 14.8231 37.0085 14.92 37.2525 14.92H39.1281C38.9051 17.8184 37.6526 20.5415 35.597 22.597C33.5415 24.6526 30.8184 25.905 27.92 26.1281Z" fill="#000002"/>
<path d="M32.9436 13.08H27.8039L23.659 6.63263C23.527 6.42734 23.319 6.28287 23.0805 6.231C22.8421 6.17912 22.5928 6.22409 22.3875 6.35601C22.1822 6.48794 22.0378 6.696 21.9859 6.93445C21.934 7.17289 21.979 7.42217 22.1109 7.62746L26.5269 14.4968C26.5464 14.5271 26.5677 14.5562 26.5907 14.5839L26.6091 14.6035C26.6257 14.6228 26.6433 14.6412 26.6618 14.6587L26.6925 14.6857C26.7092 14.7011 26.7268 14.7154 26.7453 14.7287L26.7735 14.7507C26.8013 14.7702 26.8304 14.7878 26.8606 14.8035H26.8728C26.8997 14.8181 26.9276 14.8308 26.9562 14.8415L26.982 14.8513C27.0065 14.8599 27.0323 14.8685 27.0568 14.8746L27.0863 14.8832L27.1636 14.8967H27.1918C27.2237 14.8967 27.2568 14.8967 27.2899 14.8967H32.9387C33.1827 14.8967 33.4167 14.7998 33.5893 14.6272C33.7618 14.4547 33.8587 14.2207 33.8587 13.9767C33.8587 13.7327 33.7618 13.4987 33.5893 13.3262C33.4167 13.1536 33.1827 13.0567 32.9387 13.0567L32.9436 13.08Z" fill="#000002"/>
</g>
<defs>
<clipPath id="clip0">
<rect width="28" height="28" fill="white" transform="translate(13)"/>
</clipPath>
</defs>
</svg>
