<svg width="42" height="50" viewBox="0 0 42 50" fill="none" xmlns="http://www.w3.org/2000/svg">
<circle cx="19" cy="31" r="19" fill="#EEE6DC"/>
<g clip-path="url(#clip0)">
<path d="M28.0002 24.5008C21.2463 24.5008 15.75 19.0048 15.75 12.2505C15.75 5.49614 21.2463 0.000976562 28.0002 0.000976562C34.7541 0.000976562 40.2504 5.49696 40.2504 12.2505C40.2504 19.004 34.7541 24.5008 28.0002 24.5008ZM28.0002 1.75067C25.9234 1.75067 23.8933 2.36647 22.1665 3.5202C20.4397 4.67394 19.0938 6.31378 18.2991 8.23237C17.5043 10.151 17.2964 12.2621 17.7016 14.2989C18.1067 16.3356 19.1068 18.2065 20.5753 19.6749C22.0438 21.1434 23.9148 22.1434 25.9517 22.5485C27.9886 22.9536 30.0998 22.7457 32.0185 21.951C33.9372 21.1563 35.5772 19.8105 36.731 18.0838C37.8848 16.3572 38.5006 14.3271 38.5006 12.2505C38.4978 9.46661 37.3906 6.79759 35.422 4.82911C33.4534 2.86062 30.7842 1.75349 28.0002 1.75067Z" fill="black"/>
<path d="M23.6247 42.0001H20.1243C18.9644 41.9988 17.8524 41.5375 17.0323 40.7174C16.2121 39.8973 15.7507 38.7853 15.7494 37.6255V13.1257C15.7458 13.0085 15.7658 12.8919 15.8082 12.7826C15.8505 12.6733 15.9144 12.5737 15.996 12.4895C16.0776 12.4054 16.1753 12.3385 16.2832 12.2928C16.3911 12.2472 16.5071 12.2236 16.6243 12.2236C16.7415 12.2236 16.8575 12.2472 16.9655 12.2928C17.0734 12.3385 17.1711 12.4054 17.2527 12.4895C17.3343 12.5737 17.3981 12.6733 17.4405 12.7826C17.4828 12.8919 17.5028 13.0085 17.4992 13.1257V37.6255C17.4992 38.3217 17.7758 38.9893 18.2681 39.4816C18.7604 39.9739 19.4281 40.2504 20.1243 40.2504H23.6247C31.8282 40.2504 38.5 33.5773 38.5 25.3752V13.1257C38.4965 13.0085 38.5164 12.8919 38.5588 12.7826C38.6011 12.6733 38.665 12.5737 38.7466 12.4895C38.8282 12.4054 38.9259 12.3385 39.0338 12.2928C39.1417 12.2472 39.2577 12.2236 39.3749 12.2236C39.4921 12.2236 39.6082 12.2472 39.7161 12.2928C39.824 12.3385 39.9217 12.4054 40.0033 12.4895C40.0849 12.5737 40.1487 12.6733 40.1911 12.7826C40.2335 12.8919 40.2534 13.0085 40.2498 13.1257V25.3752C40.2498 34.542 32.7913 42.0001 23.6247 42.0001Z" fill="black"/>
<path d="M17.9371 41.1246C17.7266 41.1237 17.5234 41.047 17.3648 40.9084C17.2063 40.7699 17.1029 40.5788 17.0738 40.3703C17.0447 40.1618 17.0918 39.9498 17.2063 39.7731C17.3209 39.5964 17.4953 39.467 17.6976 39.4085C20.1574 38.6973 22.3205 37.208 23.8625 35.1638C25.4045 33.1197 26.2424 30.6308 26.2505 28.0704V23.6252C26.2469 23.5081 26.2669 23.3914 26.3092 23.2821C26.3516 23.1728 26.4155 23.0732 26.4971 22.989C26.5787 22.9049 26.6763 22.838 26.7843 22.7924C26.8922 22.7467 27.0082 22.7231 27.1254 22.7231C27.2426 22.7231 27.3586 22.7467 27.4665 22.7924C27.5745 22.838 27.6721 22.9049 27.7537 22.989C27.8353 23.0732 27.8992 23.1728 27.9416 23.2821C27.9839 23.3914 28.0039 23.5081 28.0003 23.6252V28.0704C28.0003 34.0848 23.9609 39.4397 18.1791 41.0918C18.1004 41.1138 18.0189 41.1249 17.9371 41.1246Z" fill="black"/>
<path d="M23.6251 15.7504C23.1059 15.7504 22.5984 15.5964 22.1667 15.308C21.735 15.0196 21.3985 14.6096 21.1998 14.13C21.0011 13.6503 20.9492 13.1225 21.0504 12.6133C21.1517 12.1041 21.4017 11.6364 21.7689 11.2693C22.136 10.9022 22.6038 10.6522 23.113 10.5509C23.6222 10.4496 24.15 10.5016 24.6297 10.7003C25.1094 10.899 25.5193 11.2354 25.8078 11.6671C26.0963 12.0988 26.2502 12.6063 26.2502 13.1254C26.2502 13.8216 25.9736 14.4893 25.4813 14.9816C24.989 15.4738 24.3213 15.7504 23.6251 15.7504ZM23.6251 12.2502C23.452 12.25 23.2826 12.3012 23.1386 12.3973C22.9945 12.4934 22.8822 12.63 22.8158 12.7899C22.7495 12.9498 22.732 13.1259 22.7657 13.2957C22.7994 13.4655 22.8827 13.6216 23.0051 13.744C23.1274 13.8665 23.2834 13.95 23.4532 13.9838C23.623 14.0177 23.7991 14.0004 23.9591 13.9341C24.1191 13.8679 24.2558 13.7557 24.352 13.6118C24.4482 13.4678 24.4996 13.2986 24.4996 13.1254C24.4992 12.8936 24.4069 12.6713 24.243 12.5073C24.0792 12.3433 23.857 12.2508 23.6251 12.2502Z" fill="black"/>
<path d="M32.3751 15.7504C31.8559 15.7504 31.3484 15.5964 30.9167 15.308C30.485 15.0196 30.1485 14.6096 29.9498 14.13C29.7511 13.6503 29.6992 13.1225 29.8004 12.6133C29.9017 12.1041 30.1517 11.6364 30.5189 11.2693C30.886 10.9022 31.3537 10.6522 31.863 10.5509C32.3722 10.4496 32.9 10.5016 33.3797 10.7003C33.8594 10.899 34.2693 11.2354 34.5578 11.6671C34.8462 12.0988 35.0002 12.6063 35.0002 13.1254C35.0002 13.8216 34.7236 14.4893 34.2313 14.9816C33.739 15.4738 33.0713 15.7504 32.3751 15.7504ZM32.3751 12.2502C32.202 12.2502 32.0327 12.3015 31.8888 12.3977C31.7449 12.4939 31.6327 12.6306 31.5664 12.7905C31.5002 12.9504 31.4828 13.1264 31.5166 13.2962C31.5504 13.466 31.6337 13.6219 31.7562 13.7443C31.8786 13.8667 32.0345 13.9501 32.2043 13.9839C32.3741 14.0176 32.5501 14.0003 32.7101 13.9341C32.87 13.8678 33.0067 13.7556 33.1029 13.6117C33.1991 13.4678 33.2504 13.2985 33.2504 13.1254C33.2502 12.8934 33.1579 12.6709 32.9938 12.5068C32.8297 12.3427 32.6072 12.2504 32.3751 12.2502Z" fill="black"/>
<path d="M27.9991 10.4998C27.792 10.4995 27.5916 10.4259 27.4336 10.2919C27.2757 10.158 27.1702 9.9724 27.1361 9.76811C26.8969 8.36216 26.266 7.05217 25.3158 5.98859C24.3656 4.92501 23.1348 4.15096 21.7645 3.75534L14.6324 1.7169C14.4092 1.65294 14.2205 1.50293 14.1079 1.29986C13.9953 1.0968 13.968 0.857321 14.0319 0.634109C14.0959 0.410896 14.2459 0.222234 14.449 0.109627C14.6521 -0.00298093 14.8916 -0.03031 15.1148 0.0336515L22.2469 2.07209C23.4828 2.42879 24.6317 3.03698 25.6215 3.85851C26.6114 4.68004 27.4208 5.6972 27.9991 6.84621C28.5776 5.69716 29.3871 4.67989 30.3769 3.85812C31.3667 3.03634 32.5155 2.42775 33.7514 2.07045L40.8834 0.0311906C41.1068 -0.0325533 41.3463 -0.0049724 41.5493 0.107866C41.7523 0.220704 41.9021 0.409557 41.9659 0.632878C42.0296 0.8562 42.0021 1.0957 41.8892 1.29868C41.7764 1.50167 41.5875 1.65152 41.3642 1.71526L34.2337 3.7537C32.8634 4.14949 31.6324 4.92381 30.6824 5.98771C29.7323 7.05161 29.1017 8.36192 28.8629 9.76811C28.8288 9.97254 28.7232 10.1582 28.5651 10.2922C28.4069 10.4262 28.2064 10.4997 27.9991 10.4998Z" fill="black"/>
</g>
<defs>
<clipPath id="clip0">
<rect width="28" height="42" fill="white" transform="translate(14)"/>
</clipPath>
</defs>
</svg>
