<svg width="41" height="45" viewBox="0 0 41 45" fill="none" xmlns="http://www.w3.org/2000/svg">
<circle cx="19" cy="26" r="19" fill="#EEE6DC"/>
<g clip-path="url(#clip0)">
<path d="M24.7918 9.36328H31.0276C31.2953 9.36328 31.5521 9.25834 31.7414 9.07153C31.9308 8.88473 32.0371 8.63137 32.0371 8.36719C32.0371 8.10301 31.9308 7.84965 31.7414 7.66284C31.5521 7.47604 31.2953 7.37109 31.0276 7.37109H24.7918C24.524 7.37109 24.2673 7.47604 24.0779 7.66284C23.8886 7.84965 23.7822 8.10301 23.7822 8.36719C23.7822 8.63137 23.8886 8.88473 24.0779 9.07153C24.2673 9.25834 24.524 9.36328 24.7918 9.36328Z" fill="black"/>
<path d="M31.0276 11.3491H24.7918C24.524 11.3491 24.2673 11.4541 24.0779 11.6409C23.8886 11.8277 23.7822 12.081 23.7822 12.3452C23.7822 12.6094 23.8886 12.8628 24.0779 13.0496C24.2673 13.2364 24.524 13.3413 24.7918 13.3413H31.0276C31.1601 13.3413 31.2914 13.3155 31.4139 13.2655C31.5364 13.2154 31.6477 13.1421 31.7414 13.0496C31.8352 12.9571 31.9095 12.8473 31.9603 12.7264C32.011 12.6056 32.0371 12.476 32.0371 12.3452C32.0371 12.2144 32.011 12.0849 31.9603 11.964C31.9095 11.8432 31.8352 11.7334 31.7414 11.6409C31.6477 11.5484 31.5364 11.475 31.4139 11.4249C31.2914 11.3749 31.1601 11.3491 31.0276 11.3491Z" fill="black"/>
<path d="M39.991 0H15.8287C15.561 0 15.3042 0.104945 15.1149 0.291749C14.9255 0.478553 14.8192 0.731913 14.8192 0.996094V4.10391H14.0115C13.7438 4.10391 13.487 4.20885 13.2976 4.39566C13.1083 4.58246 13.002 4.83582 13.002 5.1C13.002 5.36418 13.1083 5.61754 13.2976 5.80434C13.487 5.99115 13.7438 6.09609 14.0115 6.09609H14.8192V8.08297H14.0115C13.7438 8.08297 13.487 8.18791 13.2976 8.37472C13.1083 8.56152 13.002 8.81488 13.002 9.07906C13.002 9.34324 13.1083 9.5966 13.2976 9.78341C13.487 9.97021 13.7438 10.0752 14.0115 10.0752H14.8192V12.062H14.0115C13.7438 12.062 13.487 12.167 13.2976 12.3538C13.1083 12.5406 13.002 12.7939 13.002 13.0581C13.002 13.3223 13.1083 13.5757 13.2976 13.7625C13.487 13.9493 13.7438 14.0542 14.0115 14.0542H14.8192V15.9687H14.0115C13.7438 15.9687 13.487 16.0737 13.2976 16.2605C13.1083 16.4473 13.002 16.7006 13.002 16.9648C13.002 17.229 13.1083 17.4823 13.2976 17.6691C13.487 17.856 13.7438 17.9609 14.0115 17.9609H14.8192V19.9478H14.0115C13.7438 19.9478 13.487 20.0527 13.2976 20.2395C13.1083 20.4263 13.002 20.6797 13.002 20.9439C13.002 21.208 13.1083 21.4614 13.2976 21.6482C13.487 21.835 13.7438 21.94 14.0115 21.94H14.8192V23.9268H14.0115C13.7438 23.9268 13.487 24.0318 13.2976 24.2186C13.1083 24.4054 13.002 24.6587 13.002 24.9229C13.002 25.1871 13.1083 25.4405 13.2976 25.6273C13.487 25.8141 13.7438 25.919 14.0115 25.919H14.8192V27.9059H14.0115C13.7438 27.9059 13.487 28.0108 13.2976 28.1976C13.1083 28.3845 13.002 28.6378 13.002 28.902C13.002 29.1662 13.1083 29.4195 13.2976 29.6063C13.487 29.7931 13.7438 29.8981 14.0115 29.8981H14.8192V33.0039C14.8192 33.2681 14.9255 33.5214 15.1149 33.7083C15.3042 33.8951 15.561 34 15.8287 34H39.991C40.2588 34 40.5156 33.8951 40.7049 33.7083C40.8942 33.5214 41.0006 33.2681 41.0006 33.0039V0.996094C41.0006 0.731913 40.8942 0.478553 40.7049 0.291749C40.5156 0.104945 40.2588 0 39.991 0ZM16.8383 29.8961H17.646C17.9137 29.8961 18.1705 29.7911 18.3598 29.6043C18.5492 29.4175 18.6555 29.1642 18.6555 28.9C18.6555 28.6358 18.5492 28.3825 18.3598 28.1957C18.1705 28.0089 17.9137 27.9039 17.646 27.9039H16.8383V25.9177H17.646C17.9137 25.9177 18.1705 25.8127 18.3598 25.6259C18.5492 25.4391 18.6555 25.1858 18.6555 24.9216C18.6555 24.6574 18.5492 24.4041 18.3598 24.2173C18.1705 24.0305 17.9137 23.9255 17.646 23.9255H16.8383V21.9386H17.646C17.9137 21.9386 18.1705 21.8337 18.3598 21.6469C18.5492 21.4601 18.6555 21.2067 18.6555 20.9425C18.6555 20.6784 18.5492 20.425 18.3598 20.2382C18.1705 20.0514 17.9137 19.9464 17.646 19.9464H16.8383V17.9596H17.646C17.9137 17.9596 18.1705 17.8546 18.3598 17.6678C18.5492 17.481 18.6555 17.2277 18.6555 16.9635C18.6555 16.6993 18.5492 16.4459 18.3598 16.2591C18.1705 16.0723 17.9137 15.9674 17.646 15.9674H16.8383V14.0536H17.646C17.9137 14.0536 18.1705 13.9486 18.3598 13.7618C18.5492 13.575 18.6555 13.3216 18.6555 13.0575C18.6555 12.7933 18.5492 12.5399 18.3598 12.3531C18.1705 12.1663 17.9137 12.0614 17.646 12.0614H16.8383V10.0745H17.646C17.9137 10.0745 18.1705 9.96955 18.3598 9.78274C18.5492 9.59594 18.6555 9.34258 18.6555 9.0784C18.6555 8.81422 18.5492 8.56086 18.3598 8.37405C18.1705 8.18725 17.9137 8.0823 17.646 8.0823H16.8383V6.09543H17.646C17.9137 6.09543 18.1705 5.99048 18.3598 5.80368C18.5492 5.61688 18.6555 5.36352 18.6555 5.09934C18.6555 4.83516 18.5492 4.58179 18.3598 4.39499C18.1705 4.20819 17.9137 4.10324 17.646 4.10324H16.8383V1.99219H34.9203V17V32.0078H16.8383V29.8961ZM38.9815 32.0078H36.9395V1.99219H38.9815V32.0078Z" fill="black"/>
</g>
<defs>
<clipPath id="clip0">
<rect width="28" height="34" fill="white" transform="translate(13)"/>
</clipPath>
</defs>
</svg>
