<svg width="480" height="582" viewBox="0 0 480 582" fill="none" xmlns="http://www.w3.org/2000/svg">
<g clip-path="url(#clip0)">
<path d="M49.6763 276.768C49.5662 276.475 49.5662 276.217 49.6763 275.96C50.0799 270.633 59.0686 257.482 61.27 255.682C69.8552 245.763 86.6953 243.486 91.1714 230.334C88.4197 224.309 110.727 235.734 111.901 237.204C112.854 237.865 114.469 239.114 115.313 240.437C115.386 240.437 115.459 240.4 115.569 240.4C118.688 241.539 114.799 247.086 114.322 249.253C110.396 259.943 101.664 267.401 92.2353 273.242C85.558 277.136 79.9079 282.72 75.175 288.781C74.0744 290.177 73.4507 292.969 71.3594 292.969C65.9295 290.177 61.1966 286.099 56.2069 282.573C55.3264 281.838 52.0611 279.854 50.4835 278.054C50.0065 277.797 49.7497 277.356 49.6763 276.768Z" fill="white"/>
<path d="M148.223 25.3845C148.333 22.5925 147.966 19.8373 147.306 17.1189C147.306 15.9801 144.848 11.6085 146.609 11.682C149.14 9.00023 160.184 5.40011 161.578 4.88581C163.669 4.59192 172.438 0.367285 176.107 0.624437C176.437 0.257077 176.804 0.477493 177.134 0.918324C177.464 1.102 177.648 1.39589 177.684 1.83672C177.794 2.09387 177.904 2.31429 177.978 2.46123C188.801 20.0945 175.043 39.785 177.427 58.5938C177.317 60.651 179.776 65.1695 176.987 65.6471C176.584 67.9614 172.254 68.7329 170.493 69.9819C163.963 72.5902 157.505 75.8597 150.681 77.4026C150.424 77.3658 150.168 77.2924 150.021 77.1822C149.948 77.1822 149.874 77.1822 149.801 77.1822C146.976 75.6393 146.169 67.2267 145.105 63.9939C142.243 51.0262 146.902 38.2053 148.223 25.3845Z" fill="white"/>
<path d="M195.001 127.51C195.001 127.473 195.038 127.473 195.038 127.437C194.745 125.159 198.23 121.522 199 119.722C201.972 114.359 203.623 108.481 205.091 102.566C207.586 92.2436 211.952 81.7371 219.436 74.096C220.097 73.2879 223.582 69.9081 225.526 69.2102C226.517 67.6305 228.572 69.3571 229.746 70.1653C233.268 72.7368 236.827 75.2716 240.239 78.0635C242.917 80.3779 249.448 82.9494 245.412 87.0638C236.24 98.9663 234.552 114.616 228.205 127.988C226.921 130.78 225.233 133.351 223.839 136.07C223.655 137.208 222.628 138.237 221.417 137.943C218.079 136.915 191.296 132.506 195.001 127.51Z" fill="white"/>
<path d="M259.537 61.3859C259.426 60.8716 259.463 60.5042 259.647 60.2838C259.537 55.8387 264.93 51.5774 267.718 48.565C279.862 36.9197 299.271 37.6177 311.231 25.8989C312.699 23.5111 314.166 24.1356 314.313 25.4948C317.285 27.6623 319.633 30.9318 321.908 33.7604C321.871 33.687 321.834 33.6502 321.761 33.6135C323.742 35.9646 325.613 38.3524 327.374 40.8872C329.062 42.724 330.529 45.2955 328.401 47.3895C327.961 47.867 327.448 48.7487 326.897 49.3365C326.824 49.4834 326.75 49.6304 326.604 49.7773C325.65 50.7324 324.586 51.5406 323.522 52.3856C315.964 57.8225 306.535 59.7327 298.427 64.2145C292.703 67.5575 287.016 71.525 282.944 76.8517C282.797 77.366 282.174 77.7334 281.733 77.4395C281.55 77.4762 281.403 77.4762 281.22 77.4762C279.972 77.1088 278.982 76.117 277.844 75.4925L277.808 75.4557C271.681 71.378 266.361 66.1615 260.27 62.0471C259.867 62.194 259.5 61.79 259.537 61.3859Z" fill="white"/>
<path d="M412.933 190.807C412.456 184.708 413.96 178.721 415.868 172.99C420.601 160.389 433.479 152.785 436.707 139.78C436.634 139.487 436.707 139.229 436.891 139.009C437.148 137.76 437.368 136.437 437.441 135.078C437.478 134.454 437.624 133.131 437.955 132.213C437.147 128.98 455.419 130.486 457.436 130.67C460.849 131.478 465.471 131.147 467.966 133.756C470.608 141.948 468.883 150.691 465.691 158.479C465.691 158.516 465.691 158.516 465.655 158.552C465.618 158.663 465.581 158.736 465.545 158.846C465.545 158.883 465.508 158.92 465.508 158.92C462.169 166.965 455.382 173.063 452.007 181.072C450.135 185.553 449.365 190.329 448.007 194.958C447.714 195.619 447.714 196.611 447.457 197.419C447.861 198.742 446.54 200.431 444.962 199.88C439.569 198.925 434.102 198.227 428.819 196.721C428.893 196.758 428.966 196.758 429.039 196.795C425.884 195.582 413.703 193.672 412.933 190.807Z" fill="white"/>
<path d="M453.29 276.989C459.087 287.789 468.002 296.422 473.432 307.48C474.46 308.876 481.687 323.827 479.633 325.774C480.073 326.399 480 327.427 479.376 327.905C470.571 332.46 460.811 335.546 451.419 338.558C451.346 338.522 451.272 338.485 451.236 338.448C451.015 338.448 450.759 338.411 450.428 338.301C445.329 330.072 441.843 320.705 436.303 312.623C430.543 302.52 422.178 293.153 419.903 281.507C419.903 281.177 420.013 280.773 420.234 280.552C420.307 280.516 420.344 280.442 420.417 280.405C421.481 279.524 422.802 278.899 424.159 278.348C425.59 277.76 427.094 277.209 428.378 276.438C428.342 276.475 428.268 276.511 428.232 276.511C434.285 273.095 440.926 270.67 446.87 267.254C449.695 268.062 451.419 274.528 453.29 276.989C453.29 277.026 453.29 277.026 453.29 276.989Z" fill="white"/>
<path d="M245.411 87.0271C236.239 98.9296 234.551 114.579 228.204 127.951C226.92 130.743 225.232 133.314 223.838 136.033C223.655 137.172 222.628 138.2 221.417 137.906C218.041 136.915 191.295 132.506 195.001 127.547C195.001 127.51 195.038 127.51 195.038 127.473C195.514 126.812 196.358 126.482 197.129 126.886C197.386 127.033 197.642 127.143 197.936 127.253C199.514 127.988 201.091 128.612 202.742 129.2C203.439 129.457 204.173 129.678 204.907 129.935C208.429 131.074 212.061 131.918 215.657 132.837C215.987 132.91 216.354 133.021 216.684 133.094C216.794 133.131 216.904 133.167 217.051 133.204C218.628 133.608 220.243 133.755 221.784 134.27C222.664 132.837 223.471 131.367 224.205 129.861C224.609 129.053 224.976 128.282 225.343 127.473C230.699 115.424 232.644 101.795 239.248 90.4436C239.688 89.6721 240.165 88.9006 240.679 88.1659C241.449 86.9904 242.293 85.8516 243.21 84.7495C241.632 83.6474 240.128 82.5086 238.624 81.3698C238.147 81.0391 237.707 80.6718 237.23 80.3044C235.322 78.835 233.414 77.3656 231.47 75.8961C231.029 75.5655 230.626 75.2716 230.185 74.941C230.002 74.7206 229.782 74.5369 229.525 74.3165C228.388 73.3981 226.737 72.6266 225.93 71.4878C225.526 70.9368 225.306 70.349 225.416 69.6143C225.489 69.4673 225.563 69.3204 225.636 69.2102C226.627 67.6305 228.681 69.3571 229.855 70.1653C233.377 72.7368 236.936 75.2716 240.348 78.0635C242.917 80.3412 249.447 82.9494 245.411 87.0271Z" fill="#080A1E"/>
<path d="M226.774 70.6431C226.444 70.9003 226.15 71.1942 225.82 71.488C224.499 72.7003 223.215 73.9861 222.041 75.3453C221.564 75.8964 221.124 76.4474 220.647 76.9984C215.547 83.3538 211.952 90.8846 209.42 98.5992C207.696 105.91 205.715 113.22 202.303 119.869C201.972 120.531 201.605 121.192 201.239 121.853C200.395 123.359 199.477 124.792 198.45 126.188C198.267 126.482 198.083 126.849 197.863 127.216C197.35 128.172 196.689 129.053 195.552 128.539C195.185 128.208 195.001 127.841 194.965 127.437C194.671 125.159 198.157 121.522 198.927 119.722C201.899 114.359 203.55 108.481 205.018 102.567C207.512 92.2439 211.878 81.7374 219.363 74.0963C220.023 73.2881 223.509 69.9084 225.453 69.2104C226.481 68.8798 227.031 69.1737 226.774 70.6431Z" fill="#080A1E"/>
<path d="M202.926 132.396C200.761 131.184 205.568 126.188 202.009 121.963C200.358 122.514 200.358 117.996 203.036 120.384C205.421 122.698 206.008 126.372 205.054 129.494C204.65 130.56 204.504 132.727 202.926 132.396Z" fill="#080A1E"/>
<path d="M215.951 134.858C213.346 132.947 220.096 128.319 221.968 127.841C223.068 127.657 224.426 126.996 225.49 127.51C226.297 128.172 225.857 129.641 224.829 129.825C221.527 129.825 218.335 131.368 216.317 133.976C216.611 134.27 216.391 134.858 215.951 134.858Z" fill="#080A1E"/>
<path d="M225.783 77.9906C225.416 77.9906 225.012 77.9538 224.645 77.9171C224.682 77.9171 224.756 77.9171 224.792 77.9171C224.719 77.9171 224.609 77.9171 224.535 77.8804H224.572C224.535 77.8804 224.462 77.8804 224.425 77.8804H224.462C224.462 77.8804 224.462 77.8804 224.425 77.8804H224.462C223.215 77.8804 217.858 76.7416 219.803 74.9415C221.82 75.3089 223.875 75.7497 225.966 75.5293C227.507 75.3823 229.085 74.7578 230.222 73.6925C230.699 73.3619 231.36 73.4721 231.69 73.9496C232.534 75.6395 230.296 76.8518 229.011 77.3293H229.048C229.011 77.3293 228.975 77.3661 228.938 77.3661H228.975C227.947 77.7702 226.847 78.0273 225.783 77.9906Z" fill="#080A1E"/>
<path d="M238.734 90.1867C234.735 88.9009 236.423 76.6311 238.771 80.3781C238.918 80.7088 238.881 81.1496 238.514 81.2965C238.294 83.7946 238.441 86.4029 240.569 88.0927C241.376 89.2315 239.982 91.1051 238.734 90.1867Z" fill="#080A1E"/>
<path d="M219.62 110.061C212.796 108.041 216.171 97.4238 222.849 98.8932C224.866 97.6075 226.554 101.061 226.958 102.677V102.64C226.958 102.677 226.994 102.751 226.994 102.787C226.994 102.751 226.958 102.714 226.958 102.677C228.205 106.791 223.766 111.273 219.62 110.061ZM221.381 107.453C224.536 107.343 226.151 103.449 223.472 101.465C222.922 101.171 222.298 100.84 222.335 100.142C217.455 99.9586 215.804 107.306 221.381 107.453Z" fill="#080A1E"/>
<path d="M313.396 27.8823C313.213 28.066 313.029 28.2497 312.846 28.3966C311.525 29.6824 310.094 30.8212 308.627 31.8498C308.15 32.1804 307.71 32.4743 307.196 32.7682C294.465 40.8134 277.331 41.6216 266.801 53.3036L266.765 53.3403C266.288 53.8179 265.811 54.2955 265.334 54.8098C264.967 55.2139 264.6 55.618 264.27 56.0221C263.206 57.3078 262.289 58.7038 261.665 60.2834C261.592 60.5038 261.482 60.7243 261.445 60.9447C261.261 61.6427 260.344 62.0467 259.794 61.459C259.684 61.0549 259.647 60.6508 259.647 60.2467C259.537 55.8016 264.93 51.5403 267.719 48.5279C279.863 36.8826 299.271 37.5806 311.232 25.8618C312.699 23.474 314.167 24.0985 314.314 25.4577C314.387 26.1924 314.13 27.0741 313.396 27.8823Z" fill="#080A1E"/>
<path d="M326.861 49.3362C326.787 49.4831 326.714 49.6301 326.567 49.777C325.613 50.7322 324.549 51.5403 323.485 52.3853C315.927 57.8222 306.498 59.7325 298.39 64.2142C292.667 67.5572 286.98 71.5247 282.907 76.8514C282.761 77.3657 282.137 77.7331 281.697 77.4392C281.623 77.4024 281.587 77.329 281.513 77.2555C281.477 76.3371 281.733 75.4187 282.21 74.5738C282.907 73.2513 284.081 72.039 285.292 70.8634C285.732 70.4593 286.136 70.0553 286.576 69.6879C287.53 68.8062 288.447 67.9613 289.108 67.1899C297.436 59.2182 308.92 56.8671 318.752 51.5403C319.486 51.1363 320.183 50.7322 320.88 50.3281C321.651 49.8505 322.421 49.3729 323.155 48.8586C323.082 48.8954 323.045 48.9321 322.972 49.0056C323.595 48.5647 324.219 47.9035 324.916 47.5361C325.21 47.3892 325.54 47.279 325.907 47.3157C326.934 47.3892 327.228 48.528 326.861 49.3362Z" fill="#080A1E"/>
<path d="M328.402 47.3893C327.961 47.8669 327.448 48.7485 326.897 49.3363C326.347 49.8874 325.723 50.1445 324.953 49.4833C324.366 48.7853 324.549 48.0873 324.99 47.4261C325.356 46.875 325.833 46.3607 326.2 45.9199C326.2 45.9199 326.2 45.9199 326.237 45.8831C326.237 45.8831 326.274 45.8464 326.274 45.8097C326.42 45.626 326.53 45.4423 326.677 45.2586C325.54 44.0096 324.476 42.6871 323.485 41.3279C323.192 40.9605 322.935 40.5932 322.678 40.2258C321.064 37.9849 319.56 35.7073 317.945 33.4297C317.578 32.9153 317.211 32.401 316.845 31.9235C316.845 31.8867 316.808 31.8867 316.808 31.85C316.808 31.85 316.808 31.8133 316.771 31.8133C315.707 30.454 314.533 29.205 313.469 27.8458C313.322 27.6621 313.176 27.4784 313.029 27.258C312.625 27.3315 312.369 26.9641 312.369 26.5968C311.561 25.9723 311.892 24.5763 312.956 24.5396C313.433 24.7967 313.909 25.1273 314.386 25.4579C317.358 27.6254 319.706 30.8949 321.981 33.7235C321.944 33.6501 321.908 33.6133 321.834 33.5766C323.815 35.9277 325.687 38.3155 327.448 40.8503C329.062 42.7238 330.53 45.2954 328.402 47.3893Z" fill="#080A1E"/>
<path d="M281.733 77.4023C281.55 77.4391 281.403 77.4391 281.22 77.4391C279.972 77.0717 278.982 76.0798 277.844 75.4553L277.808 75.4186C271.681 71.3409 266.361 66.1244 260.27 62.01C259.867 62.2304 259.537 61.8263 259.537 61.4222C259.426 60.9079 259.463 60.5405 259.647 60.3201C259.94 59.916 260.674 59.9895 261.701 60.3936C262.618 60.7609 263.792 61.3854 265.077 62.1569C265.7 62.561 266.361 62.9651 267.058 63.4059C270.066 65.4264 273.405 67.9244 275.826 69.7245C276.377 70.1286 276.854 70.496 277.294 70.8266C278.211 71.5246 278.908 71.9654 279.165 72.1123L279.202 72.1491C280.266 72.9205 281.293 73.7287 282.247 74.6104C282.394 74.7573 282.54 74.8675 282.651 75.0145C283.238 75.7859 282.687 77.1452 281.733 77.4023Z" fill="#080A1E"/>
<path d="M265.59 64.802C263.719 64.4714 266.434 59.5488 264.783 56.9772C264.783 57.014 264.82 57.0507 264.82 57.0874C264.637 56.7201 264.453 56.316 264.196 55.9854C263.976 55.9854 263.829 55.8384 263.719 55.6915C262.949 53.7445 265.37 54.3323 265.921 55.6547C267.241 57.3079 268.379 64.3979 265.59 64.802Z" fill="#080A1E"/>
<path d="M275.46 71.2674C273.735 69.5408 279.239 68.2918 280.413 68.0714C281.99 67.7775 288.154 67.851 286.209 70.6062C284.925 71.3042 283.384 69.9082 281.99 70.0184C279.716 69.7613 277.551 70.7531 275.46 71.2674Z" fill="#080A1E"/>
<path d="M311.194 34.6785C309.58 34.201 306.425 33.5397 306.828 31.3356C306.975 31.0784 307.305 30.8947 307.562 31.1152C309.25 32.9152 312.405 32.9152 314.68 32.5111C314.643 32.5111 314.606 32.5479 314.533 32.5479C315.303 32.3274 316.147 32.2172 316.844 31.7764C317.248 31.3723 317.505 30.7478 318.128 30.6376C319.046 30.4906 319.413 31.6662 318.936 32.2907C317.358 34.7888 313.836 35.1561 311.194 34.6785Z" fill="#080A1E"/>
<path d="M318.863 51.7608C317.615 47.9403 319.45 42.9074 322.495 40.3359C323.522 39.3441 324.366 41.3278 323.119 41.438C320.991 43.7524 320.367 47.3158 320.954 50.3648C321.394 51.5771 319.743 52.9731 318.863 51.7608Z" fill="#080A1E"/>
<path d="M293.254 57.8222C286.43 57.2344 287.971 46.7646 294.391 47.132C302.096 45.1115 300.335 59.1447 293.254 57.8222ZM294.171 55.1772C296.666 55.3609 298.574 51.5403 296.629 49.8872C295.565 49.4831 293.768 49.8137 293.914 48.1606C289.659 48.7484 289.402 55.5445 294.171 55.1772Z" fill="#080A1E"/>
<path d="M150.021 77.2556C149.947 77.2556 149.874 77.2556 149.801 77.2556C146.975 75.7127 146.168 67.3002 145.104 64.0674C142.279 51.0629 146.902 38.2421 148.223 25.4212C148.333 22.6293 147.966 19.8741 147.306 17.1556C147.306 16.0168 144.847 11.6452 146.609 11.7187C146.755 11.7187 146.902 11.7554 147.086 11.8289C147.452 12.4167 147.746 13.0044 148.039 13.5922C148.737 14.9882 149.25 16.3474 149.654 17.7434C149.837 18.4046 150.021 19.1026 150.167 19.7639C152.956 33.5766 144.26 48.124 149.03 67.2267C149.213 67.9614 149.397 68.6594 149.617 69.3941C150.094 71.0105 150.681 72.6269 151.378 74.3168C151.488 74.5739 151.598 74.8311 151.708 75.0515C151.892 76.0801 151.085 77.2556 150.021 77.2556Z" fill="#080A1E"/>
<path d="M176.987 65.6839C176.767 65.7207 176.51 65.7207 176.18 65.7207C175.41 65.4635 175.226 64.6553 175.043 63.9206C175.006 63.7737 174.969 63.6267 174.933 63.4798C174.602 62.0471 174.346 60.6144 174.162 59.1817C174.089 58.5204 174.015 57.8592 173.979 57.1612C173.025 42.724 179.739 28.5439 179.335 14.1066C179.299 12.6739 179.005 11.3147 178.601 9.99222C178.381 9.33097 178.161 8.66972 177.904 8.00848C177.391 6.53904 176.804 5.10634 176.363 3.60016C176.107 2.75524 175.923 1.91031 175.813 1.06538C175.923 0.844967 175.997 0.698024 176.107 0.587816C176.437 0.220456 176.804 0.440872 177.134 0.881703C177.354 1.13886 177.537 1.50621 177.684 1.83684C177.794 2.09399 177.904 2.31441 177.978 2.46135C188.801 20.0946 175.043 39.7851 177.427 58.5939C177.281 60.6511 179.775 65.1696 176.987 65.6839Z" fill="#080A1E"/>
<path d="M176.987 65.684C176.583 67.9983 172.254 68.7698 170.493 70.0188C163.962 72.6271 157.505 75.8966 150.681 77.4395C150.424 77.4027 150.167 77.3293 150.02 77.219C148.956 76.5578 149.543 74.6475 150.938 74.4271C151.084 74.3536 151.231 74.2802 151.378 74.2434C152.919 73.5455 154.496 72.8475 156.111 72.1862C156.808 71.8923 157.505 71.5984 158.202 71.3046C159.339 70.827 160.44 70.3494 161.577 69.8351C164.072 68.733 166.677 67.7779 169.209 66.7493C170.016 66.4187 170.823 66.0513 171.63 65.684C172.474 65.2799 173.281 64.8758 174.088 64.4717C174.382 64.2513 174.749 64.0308 175.115 63.9206C175.849 63.7002 176.583 63.7737 176.987 64.5819C177.023 64.986 177.06 65.3533 176.987 65.684Z" fill="#080A1E"/>
<path d="M177.684 1.83684C177.684 2.82871 177.134 3.30628 176.363 3.6369C175.52 4.00426 174.456 4.11447 173.722 4.33489C172.585 4.70225 171.484 5.06961 170.346 5.43697C169.759 5.62065 169.136 5.84106 168.549 6.02474C164.073 7.49418 159.56 8.96362 155.157 10.6167C154.717 10.8004 154.24 10.9474 153.8 11.131C153.286 11.3147 152.809 11.5351 152.296 11.7188C150.865 12.1964 149.507 13.0046 148.04 13.4454C147.746 13.5556 147.416 13.6291 147.122 13.6658C145.838 13.1148 145.838 12.4168 146.609 11.6086C149.14 8.92688 160.184 5.32676 161.578 4.81246C163.669 4.59204 172.438 0.367405 176.107 0.624556C176.51 0.661292 176.877 0.734764 177.134 0.918444C177.464 1.10212 177.648 1.39601 177.684 1.83684Z" fill="#080A1E"/>
<path d="M149.763 19.8007C146.902 17.9639 153.506 15.9801 153.616 13.0045C153.946 11.8657 153.726 10.6902 153.726 9.55135C154.863 7.75129 155.267 11.0943 155.267 11.9392C155.34 15.0617 152.882 19.2496 149.763 19.8007Z" fill="#080A1E"/>
<path d="M174.895 10.7638C170.823 10.8373 165.797 3.60033 169.209 3.52686C169.282 3.56359 169.319 3.60033 169.355 3.63706C170.529 7.09024 174.382 8.96378 177.867 8.00864C178.381 7.97191 178.784 8.44947 178.858 8.92704C179.041 10.9843 176.326 10.9843 174.895 10.7638Z" fill="#080A1E"/>
<path d="M156.258 72.5903C154.791 69.982 151.489 69.284 148.7 69.3575C146.902 70.7534 145.692 65.7941 152.919 67.3003C158.239 67.7778 159.89 74.023 156.258 72.5903Z" fill="#080A1E"/>
<path d="M169.025 66.5654C168.145 63.2959 170.346 59.5488 172.988 57.712C173.832 57.1242 176.363 56.2793 175.886 58.1529C173.098 59.4019 171.08 62.3408 171.52 65.5735C171.74 66.9327 169.722 67.9981 169.025 66.5654Z" fill="#080A1E"/>
<path d="M161.468 47.0956C154.9 46.3976 155.708 36.4422 161.321 34.936C171.594 31.1889 171.814 49.0059 161.468 47.0956ZM163.265 44.4506C166.678 44.4873 168.329 39.6015 165.76 37.5075C164.44 36.4054 162.495 37.3973 161.248 36.6258C157.395 38.6831 158.312 45.2221 163.265 44.4506Z" fill="#080A1E"/>
<path d="M92.4561 230.041C92.4561 230.445 92.4194 230.812 92.3827 231.216C92.236 232.649 91.8691 233.971 91.3188 235.22C91.0986 235.735 90.8418 236.249 90.5483 236.763C87.3564 242.237 80.679 246.094 75.5793 249.327C67.471 253.515 60.8303 259.98 56.7212 268.136C56.6478 268.209 56.5744 268.319 56.4644 268.43C56.1709 268.797 55.8773 269.311 55.5838 269.936C54.7033 271.809 53.8962 274.491 52.9422 276.291C52.2085 277.65 51.438 278.495 50.4841 278.128C50.4841 278.128 50.4474 278.128 50.4474 278.091C50.0071 277.871 49.7503 277.43 49.6769 276.842C49.6402 276.585 49.6402 276.328 49.6769 276.034C50.0805 270.707 59.0693 257.556 61.2706 255.756C69.8558 245.837 86.696 243.559 91.172 230.408C91.2821 230.041 91.3921 229.673 91.5022 229.306C92.0525 228.902 92.4561 229.526 92.4561 230.041Z" fill="#080A1E"/>
<path d="M114.285 249.253C110.36 259.943 101.628 267.401 92.1987 273.242C85.5213 277.136 79.8712 282.72 75.1384 288.781C74.0377 290.177 73.414 292.969 71.3227 292.969C65.8928 290.177 61.1599 286.099 56.1702 282.573C55.2897 281.838 52.0244 279.854 50.4468 278.054C50.0799 277.613 49.7864 277.209 49.6763 276.805C49.5662 276.511 49.5662 276.254 49.6763 275.997C49.8231 275.63 50.1533 275.336 50.777 275.115C51.5107 275.483 52.2445 275.887 52.9783 276.291C54.3358 277.062 55.6566 277.834 56.9774 278.679C57.6745 279.12 58.3716 279.56 59.0686 280.038C61.3434 281.581 63.5814 283.197 65.7827 284.85C66.333 285.254 66.8834 285.659 67.397 286.063C68.8279 287.128 70.2221 288.23 71.6529 289.295C72.7169 287.642 73.8542 286.026 75.1017 284.52C75.7988 283.675 76.5325 282.83 77.303 281.985C80.4582 278.532 84.0171 275.446 87.6859 272.691C97.0416 266.923 106.507 260.164 110.873 249.804C111.13 249.18 111.387 248.518 111.607 247.857C111.791 247.6 111.937 247.306 112.084 246.939C112.524 245.763 112.781 244.184 113.185 242.898C113.588 241.649 114.175 240.62 115.313 240.473C115.386 240.473 115.459 240.437 115.569 240.437C118.651 241.575 114.799 247.086 114.285 249.253Z" fill="#080A1E"/>
<path d="M115.387 243.412C114.946 243.816 114.286 243.89 113.772 243.523C113.589 243.302 113.369 243.082 113.149 242.861C112.048 241.722 110.837 240.694 109.59 239.775C109.113 239.445 108.636 239.114 108.159 238.784C105.481 237.057 102.509 235.661 99.537 234.339C98.7666 234.008 97.9961 233.677 97.2256 233.31C95.5747 232.612 93.9603 231.914 92.3827 231.143C92.0158 230.959 91.6489 230.812 91.3187 230.628C91.2454 230.518 91.172 230.408 91.1353 230.261C88.3836 224.236 110.69 235.661 111.864 237.13C112.818 237.792 114.433 239.041 115.277 240.363C115.937 241.429 116.157 242.494 115.387 243.412Z" fill="#080A1E"/>
<path d="M91.9051 237.094C90.8044 237.167 88.6398 235.735 90.4742 235.037C91.3914 235.294 92.3453 235.22 93.2626 235C94.8035 234.559 96.3811 234.008 97.7019 233.09C98.0321 232.465 98.6925 231.657 99.4997 232.098C101.921 235.294 94.1431 237.424 91.9051 237.094Z" fill="#080A1E"/>
<path d="M110.544 249.584C107.902 246.645 105.884 240.768 109.039 237.645C109.883 237.388 110.47 238.674 109.736 239.151C108.856 241.98 110.287 245.029 112.195 247.086C113.552 248.115 112.011 250.65 110.544 249.584Z" fill="#080A1E"/>
<path d="M57.7479 280.736C55.2164 279.855 59.3255 274.822 56.8674 271.956C56.9041 271.993 56.9041 272.03 56.9408 272.067C56.3904 271.038 55.6566 270.083 55.1797 269.018C55.4732 265.748 59.4356 271.699 59.6557 272.801C60.2061 274.748 60.3895 280.516 57.7479 280.736Z" fill="#080A1E"/>
<path d="M65.6733 286.761C62.8483 284.594 72.2039 281.398 73.8916 281.508C75.3592 281.434 78.5144 281.471 78.1842 283.602C78.0374 284.263 77.5238 284.74 76.8634 284.777C72.9744 283.712 69.1588 285.181 65.6733 286.761Z" fill="#080A1E"/>
<path d="M81.889 266.63C74.5879 264.058 78.2201 251.641 86.1816 255.903C92.1619 257.629 87.6859 268.393 81.889 266.63ZM83.3933 263.617C85.3011 263.58 87.0255 261.193 86.255 259.393C85.8147 258.658 84.7875 258.144 85.081 257.115C79.4676 255.462 78.6237 263.029 83.3933 263.617Z" fill="#080A1E"/>
<path d="M444.999 199.88C439.605 198.925 434.139 198.227 428.855 196.721C428.929 196.757 429.002 196.757 429.076 196.794C425.884 195.582 413.703 193.672 412.896 190.806C412.419 184.708 413.923 178.72 415.831 172.989C420.564 160.389 433.441 152.784 436.67 139.78C436.743 139.523 436.817 139.266 436.854 139.009C437.11 137.759 437.331 136.437 437.404 135.078C437.441 134.453 437.587 133.131 437.918 132.212C438.248 131.294 438.798 130.78 439.679 131.845C439.752 132.396 439.789 132.947 439.825 133.461C439.899 134.894 439.825 136.327 439.642 137.759C439.532 138.678 439.385 139.56 439.202 140.478C438.871 142.131 438.431 143.784 437.991 145.364C431.937 159.507 421.297 164.907 417.445 179.308C417.262 179.969 417.115 180.63 416.968 181.328C416.455 183.716 416.124 186.361 416.051 189.3C417.188 189.667 418.289 189.998 419.426 190.329C420.27 190.586 421.114 190.843 421.958 191.063C426.837 192.459 431.791 193.672 436.78 194.627C437.367 194.737 437.954 194.847 438.505 194.957C438.871 195.031 439.238 195.104 439.605 195.141C441.476 195.545 443.421 195.619 445.292 195.986C445.769 196.096 446.283 196.206 446.76 196.39C447.163 196.647 447.383 196.978 447.493 197.345C447.86 198.741 446.576 200.431 444.999 199.88Z" fill="#080A1E"/>
<path d="M465.728 158.515C465.728 158.552 465.728 158.552 465.691 158.589C465.655 158.699 465.618 158.773 465.581 158.883C465.581 158.92 465.545 158.956 465.545 158.956C462.206 167.001 455.419 173.1 452.043 181.108C450.172 185.59 449.402 190.365 448.044 194.994C447.751 195.655 447.751 196.647 447.494 197.456C447.274 198.154 446.907 198.705 445.99 198.668C445.292 198.815 445.146 197.786 445.292 196.133C445.439 194.627 445.843 192.643 446.356 190.549C446.577 189.594 446.87 188.602 447.127 187.61C448.264 183.496 449.585 179.639 449.989 178.941C456.299 167.222 465.691 157.23 466.058 143.895C466.095 143.086 466.058 142.278 466.022 141.47C465.912 139.707 465.655 137.907 465.214 135.996C463.417 135.592 461.582 135.262 459.748 135.004C459.271 134.931 458.757 134.857 458.28 134.821C454.465 134.343 450.612 134.123 446.797 133.976C446.723 133.976 446.687 133.976 446.613 133.976C446.21 133.902 445.806 133.866 445.366 133.829C443.568 133.755 441.55 134.013 439.863 133.572C439.202 133.388 438.615 133.094 438.101 132.653C438.028 132.543 437.991 132.433 437.955 132.323C437.148 129.09 455.419 130.596 457.436 130.78C460.849 131.588 465.471 131.257 467.966 133.866C470.608 141.984 468.92 150.727 465.728 158.515Z" fill="#080A1E"/>
<path d="M420.161 193.084C417.483 192.276 422.949 184.341 415.905 180.704C415.942 180.741 415.942 180.741 415.978 180.777C414.768 179.124 416.822 178.72 418.033 179.712C421.738 180.888 424.197 192.349 420.161 193.084Z" fill="#080A1E"/>
<path d="M436.634 195.876C436.487 191.651 443.128 187.831 446.981 187.574C449.769 187.133 449.255 190.77 446.76 190.439C440.23 190.696 437.698 197.529 436.634 195.876Z" fill="#080A1E"/>
<path d="M446.944 132.837C446.944 133.205 446.87 133.535 446.797 133.903C446.026 137.209 442.577 139.854 439.239 140.515C438.542 140.662 437.845 140.699 437.148 140.662C436.891 140.331 436.781 140.037 436.744 139.78C436.671 139.486 436.744 139.229 436.927 139.009C437.404 138.384 438.615 138.09 439.679 137.797C440.193 137.65 440.706 137.503 441 137.319C440.963 137.319 440.89 137.356 440.853 137.392C442.614 136.694 444.485 135.482 445.329 133.756C445.586 133.241 445.769 132.654 445.843 132.029C446.356 131.074 447.054 132.139 446.944 132.837Z" fill="#080A1E"/>
<path d="M466.132 143.821C454.721 143.013 458.5 129.274 460.041 133.314C458.537 138.237 463.16 140.919 467.196 141.654C467.966 142.462 467.232 144.005 466.132 143.821Z" fill="#080A1E"/>
<path d="M440.119 170.271C431.24 168.802 438.578 152.527 445.769 159.14C447.127 158.442 447.567 160.683 447.934 161.601C448.705 166.12 445.109 171.52 440.119 170.271ZM442.541 167.81C445.329 167.663 447.42 163.769 445.843 161.418C445.513 161.454 445.219 161.16 445.219 160.83C444.082 159.36 441.183 159.471 439.936 160.793C437.661 163.732 437.808 168.324 442.541 167.81Z" fill="#080A1E"/>
<path d="M451.199 338.448C450.979 338.448 450.722 338.412 450.392 338.302C445.292 330.073 441.807 320.705 436.267 312.623C430.507 302.521 422.142 293.153 419.867 281.508C419.867 281.177 419.977 280.773 420.197 280.553C420.271 280.516 420.307 280.442 420.381 280.406C420.528 280.332 420.674 280.259 420.821 280.259C421.371 280.222 421.775 280.92 422.069 281.765C422.509 282.904 422.802 284.336 423.206 284.924C423.426 285.438 423.683 285.99 423.94 286.504C424.233 287.165 424.563 287.826 424.894 288.488C430.36 299.178 438.138 308.582 443.568 319.346C443.678 319.529 443.752 319.676 443.825 319.86C443.862 319.897 443.898 319.97 443.898 320.007C443.898 320.044 443.935 320.044 443.935 320.08C443.935 320.117 443.972 320.154 443.972 320.191C444.045 320.374 444.155 320.521 444.229 320.705C445.879 323.681 447.31 326.766 448.705 329.889C448.888 330.293 449.071 330.697 449.255 331.101C449.915 332.534 450.576 334.003 451.273 335.436C451.53 335.693 451.75 336.097 451.86 336.501C452.263 337.383 452.08 338.412 451.199 338.448Z" fill="#080A1E"/>
<path d="M479.633 325.775C479.34 326.069 478.789 326.069 478.019 325.664V325.628C477.432 323.681 476.772 321.77 476.038 319.86C475.744 319.125 475.487 318.427 475.157 317.693C472.222 310.603 468.333 303.917 463.894 297.598C458.867 291.757 454.355 285.549 450.649 278.863C450.172 278.055 449.732 277.21 449.292 276.365C448.338 274.528 447.457 272.654 446.613 270.781C445.182 271.92 443.531 272.765 441.844 273.499C441.22 273.757 440.633 274.014 440.009 274.271C438.248 274.969 436.487 275.63 434.873 276.548C434.139 276.769 431.901 277.944 429.406 279.12C428.856 279.377 428.306 279.634 427.755 279.891C425.664 280.81 423.609 281.618 422.142 281.802C420.894 281.949 420.124 281.655 420.234 280.589C420.307 280.553 420.344 280.479 420.417 280.442C421.481 279.561 422.802 278.936 424.16 278.385C425.591 277.797 427.095 277.246 428.379 276.475C428.342 276.512 428.269 276.548 428.232 276.548C434.286 273.132 440.927 270.707 446.87 267.291C449.732 268.062 451.456 274.565 453.327 277.063V277.026C459.124 287.826 468.04 296.459 473.47 307.517C474.423 308.876 481.688 323.864 479.633 325.775Z" fill="#080A1E"/>
<path d="M479.377 327.905C470.571 332.46 460.812 335.546 451.42 338.558C451.346 338.521 451.273 338.485 451.236 338.448C450.943 338.264 450.796 338.081 450.796 337.86C450.796 337.456 451.236 336.979 452.007 336.428C452.997 335.73 454.575 334.921 456.373 334.15C456.996 333.893 457.62 333.599 458.28 333.342C463.27 331.285 469.067 329.338 469.911 328.787C470.241 328.676 470.535 328.566 470.865 328.456C471.342 328.309 471.819 328.125 472.296 327.978C474.24 327.28 476.185 326.582 478.019 325.591C478.239 325.48 478.459 325.37 478.643 325.223C479.083 325.223 479.45 325.407 479.67 325.737C480.074 326.399 480 327.427 479.377 327.905Z" fill="#080A1E"/>
<path d="M457.547 335.656C456.923 335.509 456.666 334.775 456.409 334.26C455.089 331.579 451.713 331.248 449.072 331.028C448.741 331.358 448.154 331.138 448.154 330.66C448.741 328.787 452.007 330.036 453.474 329.999C455.455 329.779 461.142 334.995 457.547 335.656Z" fill="#080A1E"/>
<path d="M471.305 329.228C467.306 323.901 478.423 312.439 476.955 319.125C474.13 321.072 471.672 324.268 472.112 327.942C473.58 328.125 472.296 330.146 471.305 329.228Z" fill="#080A1E"/>
<path d="M450.026 308.912C444.779 308.802 443.899 299.251 448.741 297.782C448.962 296.753 450.136 296.863 450.943 296.716C450.906 296.716 450.906 296.716 450.869 296.716C459.124 296.496 458.06 309.28 450.026 308.912ZM450.576 306.451C454.135 306.231 456.519 301.565 453.071 299.398C451.823 298.075 449.915 300.316 448.888 298.847C446.026 300.39 446.834 307.039 450.576 306.451Z" fill="#080A1E"/>
<path d="M424.086 288.708C421.444 287.349 425.957 285.622 426.324 284.042C427.718 282.279 427.498 279.965 428.158 277.981C431.167 276.585 427.865 286.283 426.544 286.981C425.92 287.716 425.187 288.745 424.086 288.708Z" fill="#080A1E"/>
<path d="M447.274 278.973C445.109 279.083 437.514 273.903 439.862 271.809C440.339 271.699 440.67 272.176 440.926 272.507C442.1 274.013 443.751 275.079 445.476 275.85C445.439 275.813 445.366 275.813 445.329 275.777C446.907 276.511 448.594 276.364 450.282 276.328C450.906 276.364 451.309 277.062 451.346 277.613C451.346 279.671 448.631 279.046 447.274 278.973Z" fill="#080A1E"/>
<path d="M392.644 136.658C392.314 134.159 390.113 133.131 387.764 132.359C386.627 131.955 385.453 131.625 384.462 131.221C384.206 131.11 383.986 131 383.765 130.89C379.95 129.531 376.134 128.025 372.429 126.371C365.861 123.028 358.56 122.073 351.516 120.237C351.259 120.163 351.002 120.09 350.745 120.053C350.525 119.465 349.938 119.281 349.388 119.392C348.654 119.502 347.92 120.053 347.957 120.824C339.959 141.396 332.658 162.409 321.798 181.733C314.864 193.892 309.36 207.044 300.665 218.064C299.344 219.864 297.987 221.628 296.593 223.354C284.962 237.388 269.81 247.857 254.327 257.482C253.887 257.041 253.08 257.151 252.053 257.592C248.09 259.282 240.826 266.115 238.588 267.327C228.865 274.638 220.17 283.197 211.658 291.83C212.282 280.442 212.135 269.017 212.208 257.592C212.355 251.274 212.979 248.812 212.429 247.086C211.805 245.212 209.75 244.22 204.1 240.069C202.633 237.718 200.835 235.587 198.89 233.53C195.478 229.893 191.626 226.514 188.324 222.84C181.206 215.272 174.639 207.227 168.035 199.219C159.78 188.896 152.736 177.765 146.389 166.193C146.352 166.12 146.279 166.01 146.242 165.936C139.821 154.732 135.015 142.646 128.118 131.772C128.081 131.698 128.044 131.661 128.008 131.588C128.044 131.625 128.081 131.661 128.081 131.698L128.118 131.735C128.118 131.698 128.081 131.698 128.081 131.661C127.164 129.935 124.999 130.927 125.586 132.8C125.439 132.874 125.293 132.91 125.146 132.947C116.01 136.474 107.095 140.441 98.5098 145.144C97.9228 145.474 97.2991 145.805 96.7121 146.135C95.0611 147.054 93.4467 148.009 91.8324 149.001C88.8973 150.544 91.5756 154.585 92.3094 156.826C93.9604 160.756 95.0244 164.907 96.7121 168.765C98.2163 171.446 101.372 170.785 103.72 171.704C107.939 182.945 113.809 193.525 119.863 203.884C123.935 212.334 129.805 219.644 135.235 227.212C148.186 245.469 160.587 264.095 170.163 284.41C165.357 296.863 171.227 309.5 175.96 320.999C175.997 321.109 176.033 321.219 176.07 321.329C176.547 322.468 176.951 323.644 177.391 324.819C172.438 346.493 169.319 368.572 163.999 390.172C163.963 390.319 163.926 390.466 163.889 390.613C163.522 392.009 163.082 393.405 162.605 394.764C162.092 396.16 161.505 397.52 160.881 398.879C159.597 401.671 158.092 404.353 156.478 406.997C155.451 409.165 153.91 411.075 152.516 413.022C152.369 413.206 152.222 413.426 152.075 413.61C151.488 414.455 150.901 415.337 150.388 416.218C150.278 416.402 150.168 416.622 150.058 416.843C149.911 417.173 149.764 417.504 149.617 417.835C149.581 417.945 149.544 418.055 149.507 418.165C149.434 419.01 149.654 419.635 150.021 420.075C150.571 420.7 151.452 420.884 152.259 420.627C152.956 420.406 153.58 419.855 153.947 418.973C154.424 420.406 154.974 421.802 155.561 423.198C155.781 423.712 156.001 424.227 156.221 424.704C158.533 429.774 161.358 434.549 163.963 439.472C164.073 439.693 164.183 439.876 164.33 440.097C163.559 442.117 161.174 444.064 162.018 446.342C164.219 449.538 166.531 445.056 167.485 443.109C169.906 443.586 171.594 440.244 170.126 438.407C174.712 430.325 178.748 421.986 182.38 413.463C183.921 409.863 185.389 406.189 186.783 402.516C191.626 391.164 197.349 380.18 201.605 368.608C199.367 379.703 197.423 390.797 194.781 401.818C193.791 406.153 193.094 410.487 192.58 414.896C191.846 421.031 191.443 427.202 190.892 433.337C191.039 436.57 187.627 453.064 191.186 453.395C193.864 453.652 193.827 450.456 193.754 448.583C221.014 444.909 247.87 436.313 271.424 421.876C271.351 421.912 271.241 421.986 271.167 422.022C273.259 420.112 277.735 420.884 277.258 417.284C277.258 417.173 277.258 417.026 277.258 416.916C276.817 402.81 276.487 388.703 277.074 374.596V374.56C277.148 371.364 277.258 368.131 277.404 364.935C278.248 344.693 279.973 324.452 282.284 304.357C287.641 297.01 295.015 291.61 301.803 285.659C311.415 277.246 321.064 268.797 329.759 259.429C330.42 258.694 331.117 257.96 331.777 257.262C356.506 229.526 369.604 193.451 380.794 158.589C383.765 158.148 388.718 159.25 389.159 155.099C390.333 148.964 393.011 142.976 392.644 136.658ZM273.369 375.662C273.369 375.992 273.369 376.286 273.369 376.617C273.369 376.286 273.369 375.956 273.369 375.662ZM179.886 317.986C179.849 317.913 179.812 317.803 179.776 317.729L179.886 317.986Z" fill="#AB7051"/>
<path d="M216.611 190.476C214.483 188.198 217.528 183.827 220.353 185.259C223.802 187.096 219.436 193.047 216.611 190.476Z" fill="#AB7051"/>
<path d="M238.514 207.962C234.808 205.501 234.111 197.603 240.202 199.219C247.466 201.827 245.411 213.583 238.514 207.962Z" fill="#AB7051"/>
<path d="M214.666 218.726C204.43 217.44 208.539 202.672 213.859 198.007C214.776 196.758 217.345 199.586 218.445 200.027C220.793 201.35 223.068 202.782 225.526 203.848C225.526 203.848 225.489 203.848 225.489 203.811C225.526 203.811 225.563 203.848 225.599 203.848H225.563C225.599 203.885 225.673 203.885 225.71 203.921H225.673C227.177 205.207 232.35 205.721 230.773 208.44C226.774 213.399 221.38 218.469 214.666 218.726ZM215.437 216.007C218.188 215.713 220.793 214.391 223.068 212.885C223.031 212.922 222.958 212.958 222.921 212.995C224.535 211.819 226.003 210.46 227.397 209.028C227.361 209.064 227.324 209.101 227.287 209.138C227.324 209.101 227.361 209.064 227.434 208.991L227.397 209.028C227.471 208.954 227.507 208.917 227.581 208.844L227.544 208.881C227.838 208.587 228.131 208.293 228.425 207.999C226.81 207.411 225.343 206.53 223.802 205.868C223.838 205.905 223.912 205.905 223.948 205.942C220.683 204.252 217.565 202.231 214.96 199.66C214.153 201.423 212.868 202.966 212.135 204.766C212.135 204.729 212.171 204.693 212.171 204.656C212.135 204.729 212.135 204.766 212.098 204.84C212.098 204.84 212.098 204.803 212.135 204.803C210.19 208.587 209.42 216.118 215.437 216.007Z" fill="#080A1E"/>
<path d="M225.086 196.978C222.151 196.794 216.611 194.59 218.299 190.843C220.94 188.602 224.939 189.263 228.168 188.418C228.278 188.382 228.388 188.382 228.498 188.345C228.425 188.345 228.388 188.382 228.315 188.382C230.993 187.831 233.231 186.361 235.176 184.524C235.873 183.606 236.79 185.075 235.836 185.516C232.607 190.88 226.15 191.725 220.537 192.533C221.894 193.965 223.986 194.37 225.893 194.59C225.857 194.59 225.783 194.59 225.747 194.59C225.857 194.59 226.003 194.627 226.114 194.627C226.077 194.627 226.003 194.627 225.967 194.627C226.994 194.957 228.865 194.039 229.195 195.435C229.269 197.419 226.407 197.015 225.086 196.978Z" fill="#080A1E"/>
<path d="M255.281 203.223C254.07 196.354 251.502 191.982 243.761 194.113C242.256 194.848 241.156 192.937 242.183 191.798C243.504 190.696 245.558 190.917 247.173 190.623C247.136 190.623 247.063 190.623 247.026 190.623C251.575 190.145 255.758 193.341 256.528 197.823C256.528 197.786 256.528 197.786 256.492 197.75C256.528 197.86 256.528 197.97 256.565 198.08C256.565 198.044 256.565 198.044 256.528 198.007C256.932 199.256 258.032 204.95 255.281 203.223Z" fill="#080A1E"/>
<path d="M252.529 193.341C252.089 193.231 251.392 193.194 251.208 192.68C251.025 192.57 251.135 192.166 251.392 192.202C253.336 192.055 255.281 191.578 257.225 191.504C259.867 193.341 253.52 193.562 252.529 193.341Z" fill="#080A1E"/>
<path d="M254.474 196.391C254.217 196.391 253.997 196.244 253.923 196.023C253.63 195.399 254.29 194.517 254.951 194.921C256.345 194.811 257.739 193.672 259.133 194.076C259.683 194.443 259.573 195.288 258.986 195.582C257.519 196.023 255.978 196.244 254.474 196.391Z" fill="#080A1E"/>
<path d="M255.207 198.594C254.62 197.015 256.968 197.492 257.812 196.941C258.509 196.647 259.903 196.207 260.014 197.345C260.05 197.786 259.72 198.264 259.28 198.337C257.996 198.3 256.345 199.366 255.207 198.594Z" fill="#080A1E"/>
<path d="M397.046 359.645C396.753 360.747 396.386 361.849 395.982 362.915C393.818 368.609 390.112 373.788 385.269 377.535C385.269 377.535 385.269 377.535 385.232 377.535C373.529 386.903 357.862 381.246 344.251 382.348C331.41 382.789 320.036 390.797 306.975 389.511C291.602 388.924 283.568 377.425 277.404 364.825C277.22 364.494 277.074 364.127 276.89 363.759C276.046 363.723 275.569 362.841 275.643 362.07C275.679 359.535 275.459 356.963 275.533 354.392C275.533 354.465 275.533 354.575 275.533 354.649C276.083 342.857 276.083 330.991 277.661 319.309V319.272C278.725 313.505 279.165 306.966 282.357 301.933C284.631 298.847 287.31 295.945 290.061 293.226C290.061 293.226 290.061 293.226 290.061 293.19C301.508 281.25 313.542 269.899 326.2 259.246C326.64 258.401 328.108 258.695 329.685 259.282C331.41 259.907 333.318 260.825 334.272 260.862C347.296 264.095 358.486 274.013 361.275 287.422C361.275 287.459 361.311 287.532 361.311 287.569C362.742 293.741 364.063 299.986 366.301 305.937C371.804 322.689 393.414 323.019 397.009 343.187V343.224C398.587 348.734 398.477 354.355 397.046 359.645Z" fill="#080A1E"/>
<path d="M285.292 235.992C275.973 244.404 266.434 253.037 255.391 259.099C255.391 261.082 252.382 261.854 252.015 259.65C252.015 258.952 252.015 258.254 252.015 257.556C252.309 248.959 255.317 240.731 257.482 232.465C258.289 229.012 262.141 231.069 264.563 230.298C271.607 228.277 266.214 221.922 262.215 219.828C262.251 219.865 262.288 219.865 262.288 219.901C261.151 219.167 258.656 218.248 259.977 216.632C260.307 215.53 260.637 214.428 260.967 213.289C262.949 206.382 264.489 199.182 263.792 191.945C262.912 190.696 263.242 188.933 262.655 187.537C260.931 184.12 257.885 180.851 253.96 180.263C253.483 180.079 253.483 179.381 253.85 179.088C255.868 177.912 258.436 179.161 260.124 180.373C255.904 173.247 248.64 168.324 245.668 160.426C242.183 162.777 238.33 164.503 234.625 166.45C236.753 166.671 240.752 171.373 237.56 172.475C235.322 171.483 236.386 168.581 231.873 168.287C230.699 169.059 229.672 169.977 228.718 170.969C228.755 170.932 228.755 170.932 228.791 170.895C227.067 172.585 225.379 174.312 223.985 176.259C224.792 176.149 225.673 176.185 226.48 176.479C227.03 175.598 227.801 172.659 228.975 172.916C230.259 174.018 227.654 175.524 227.14 176.553C227.287 176.663 227.507 176.81 227.507 176.994C227.984 177.361 228.424 177.765 228.755 178.279C229.452 177.471 229.562 176.002 230.626 175.598C232.24 175.818 230.736 177.545 230.185 178.206C230.149 178.243 230.149 178.279 230.112 178.279C229.855 178.61 229.598 178.941 229.305 179.235C229.635 179.822 229.892 180.41 230.039 181.071C230.589 180.373 231.066 179.602 231.616 178.941C231.946 178.61 232.46 178.5 232.827 178.867C233.561 179.822 232.35 180.631 231.763 181.255C231.286 181.733 230.809 182.247 230.332 182.724C230.222 184.047 230.736 186.582 229.011 186.876C228.534 186.876 228.168 186.472 228.094 186.031C228.168 181.586 227.104 176.994 221.637 179.271C220.169 181.071 218.298 183.643 216.39 186.729C216.134 187.17 215.877 187.574 215.583 188.051C209.163 198.668 202.339 213.95 205.237 221.407C210.337 230.334 216.354 223.354 213.786 237.645C213.272 239.335 213.455 244.514 212.465 247.012C212.135 247.821 211.658 248.372 211.034 248.408C207.805 246.976 204.833 244.698 202.449 242.016C201.055 240.62 199.22 239.482 199.66 237.277C198.89 236.763 199.147 235.845 199.147 235.11C199.073 234.559 199 234.008 198.927 233.457C197.239 219.056 201.568 204.766 206.411 191.321C212.171 176.994 221.637 163.401 236.019 156.826C240.715 154.364 245.485 153.262 250.107 153.262C261.371 153.262 272.011 159.728 279.935 168.765C288.154 177.141 291.859 188.639 292.703 200.137C292.703 200.284 292.74 200.394 292.74 200.541C292.74 200.578 292.74 200.615 292.74 200.652C292.74 200.799 292.777 200.946 292.777 201.092C293.18 208.623 295.051 216.044 296.592 223.318C296.629 223.501 296.666 223.685 296.702 223.869C298.39 227.028 287.383 233.273 285.292 235.992Z" fill="#080A1E"/>
<path d="M398.661 18.7353C398.368 19.9843 398.148 21.2701 398.074 22.5191C398.001 23.1069 397.597 23.6579 397.084 23.8416C396.863 23.9151 396.643 23.9151 396.386 23.8783C393.011 22.5191 397.524 14.4372 397.414 11.4983C394.112 14.6209 393.011 19.2496 390.626 22.8865C384.829 23.9518 392.057 10.7636 391.947 8.22881C390.406 9.47783 389.232 11.0207 388.205 12.7106C388.168 12.7473 388.168 12.7473 388.168 12.7841C386.664 14.18 382.665 26.4498 381.051 20.2415C381.564 15.4291 384.976 11.3514 385.673 6.61242C385.196 7.05326 384.719 7.53082 384.279 8.00839C384.206 8.1186 384.096 8.19207 384.022 8.30228C374.924 19.1394 371.768 33.4297 368.32 46.8383C364.797 59.4755 362.449 72.3698 359.844 85.1906C359.844 85.1906 359.844 85.1906 359.844 85.2274C359.844 85.2641 359.844 85.3008 359.808 85.3376C359.771 85.558 359.734 85.7784 359.698 85.9988V86.0356C359.661 86.1825 359.661 86.2927 359.624 86.4396C359.624 86.3662 359.661 86.2927 359.661 86.2192C359.588 86.5866 359.514 86.9172 359.478 87.2846C358.34 90.6643 354.708 113.698 351.589 120.2C350.966 121.486 350.379 122.147 349.828 121.853C349.021 121.559 349.131 120.531 349.462 119.318C349.865 117.922 350.599 116.269 350.562 115.388C352.727 105.836 354.561 96.2114 356.579 86.6233C356.579 86.5866 356.579 86.5499 356.579 86.5499C357.423 81.7007 358.487 76.925 359.367 72.0759C362.669 54.7365 366.522 37.3604 372.575 20.7558C374.887 15.2086 377.785 9.77172 381.894 5.32667C385.894 0.330577 389.819 1.94696 388.168 8.37575C391.947 2.86536 395.799 5.87771 393.818 11.6085C395.176 9.36762 398.881 5.54708 400.019 10.1023C400.202 13.0412 399.322 15.8699 398.661 18.7353Z" fill="#080A1E"/>
<path d="M384.426 132.065C384.426 132.102 384.426 132.139 384.426 132.139C384.426 132.176 384.426 132.212 384.426 132.249C384.389 132.176 384.426 132.102 384.426 132.065Z" fill="#080A1E"/>
<path d="M402.697 28.4704C402.697 28.4704 402.697 28.5071 402.697 28.4704C396.203 51.2099 393.525 74.9046 390.81 98.3054C390.406 106.718 389.196 115.057 388.865 123.47C388.315 124.719 388.462 129.494 387.801 132.323C387.361 134.196 386.517 135.188 384.903 133.682C384.536 133.205 384.426 132.69 384.463 132.103C384.463 131.809 384.499 131.478 384.536 131.184C385.967 109.473 387.765 87.7622 391.103 66.2349C393.708 50.2915 396.277 34.2012 402.807 19.3231C401.376 20.0946 398.515 25.3111 397.157 23.8416C396.937 23.5845 396.754 23.1436 396.607 22.4824C396.937 21.5273 397.744 20.0946 398.771 18.7353C400.936 15.8699 404.128 13.1882 406.513 15.1352C408.017 17.1189 403.284 25.5682 402.697 28.4704Z" fill="#080A1E"/>
<path d="M117.295 8.22876C117.001 9.66146 116.487 11.1309 115.864 12.4901C115.423 13.7759 115.534 16.0903 114.249 16.6413C113.956 16.7515 113.626 16.7882 113.222 16.7148C109.627 14.8045 115.35 7.93488 115.057 4.70211C112.085 7.12668 110.214 10.6533 108.526 14.033C108.342 14.5106 107.866 14.9147 107.389 15.0249C102.692 14.878 108.196 6.72259 107.352 3.89392C104.307 9.14716 103.206 15.3923 102.032 21.3068C100.344 28.8744 98.253 36.3318 96.9689 43.9729C92.9699 61.0918 92.4562 78.7251 92.5296 96.2481C93.2634 112.669 94.2907 129.2 98.4732 145.107C98.5099 145.254 98.5466 145.438 98.5833 145.585C98.6933 146.503 97.5193 147.127 96.8589 146.466C96.7855 146.356 96.7488 146.246 96.6754 146.099C92.6763 138.311 91.7958 129.017 90.6218 120.42C89.1175 106.24 88.4571 92.0602 88.9341 77.8067C88.9341 77.4393 88.9708 77.1087 88.9708 76.7413C89.4477 57.9692 93.4101 39.5278 98.1797 21.417C99.6105 14.9514 100.858 8.2655 104.16 2.46122C106.912 -2.13078 110.947 0.293795 110.287 5.06947C116.891 -2.75529 118.542 2.42448 117.295 8.22876Z" fill="#080A1E"/>
<path d="M123.055 34.8992C120.303 46.3241 118.799 58.0429 118.469 69.8351C118.542 87.3214 122.101 104.551 125.66 121.596C126.467 124.939 127.127 128.319 128.081 131.662C128.081 131.662 128.081 131.662 128.081 131.698C128.081 131.735 128.081 131.735 128.081 131.772C128.631 133.572 126.136 135.152 125.183 133.168C125.146 133.094 125.146 133.021 125.109 132.984C113.882 94.191 106.912 49.3364 128.411 12.8944C125.586 13.8495 122.174 19.8742 120.046 19.213C116.854 16.6047 122.908 10.9841 122.431 7.34725C119.092 9.58814 117.625 13.7026 114.983 16.6414C114.69 16.7517 114.469 16.7884 114.249 16.7149C113.369 16.4945 113.552 14.7312 114.066 13.9965C115.203 12.2331 116.157 10.1759 117.258 8.30239C118.322 6.50232 119.606 4.88594 121.44 3.8206C126.21 1.57971 126.063 8.55954 124.852 11.3882C130.246 6.686 132.961 10.2494 130.649 16.1271C127.641 22.1518 124.926 28.3235 123.055 34.8992Z" fill="#080A1E"/>
<path d="M306.241 417.394C305.911 418.679 305.361 420.075 304.664 421.508C301.985 426.982 297.289 433.043 296.115 435.872C290.905 443.403 287.016 451.668 282.467 459.567C282.283 459.824 282.137 460.118 281.99 460.375C281.293 461.587 280.853 462.689 280.376 463.681C279.128 466.289 277.991 467.795 273.038 467.244C238.22 465.701 202.852 468.934 168.401 462.652C161.724 460.852 154.203 460.742 148.149 457.142C148.002 457.069 147.892 456.995 147.782 456.922C146.388 455.673 145.104 454.313 143.966 452.844C137.656 444.872 134.868 434.255 132.336 424.557C131.822 422.5 131.272 419.488 131.199 416.402C131.162 415.153 131.199 413.941 131.346 412.765C131.786 409.055 133.29 405.895 136.812 405.308C141.655 407.328 147.012 409.275 151.121 412.692C151.451 412.949 151.745 413.243 152.075 413.5C152.368 413.757 152.625 414.051 152.919 414.308C153.359 414.308 153.726 414.381 154.093 414.565C156.184 415.63 156.514 420.002 157.761 421.876C160.476 428.084 163.742 434.182 168.071 439.399C172.51 431.28 176.62 423.014 180.912 414.822C181.242 414.161 181.756 413.683 182.343 413.39C183.077 413.022 183.921 412.949 184.801 413.132C186.819 413.463 189.351 412.838 191.038 414.051C191.845 413.941 192.322 414.271 192.579 414.785C192.909 415.483 192.873 416.512 192.689 417.284C192.432 420.259 192.506 423.271 191.845 426.21C191.148 431.978 191.662 437.819 191.699 443.623C203.806 443.954 215.84 442.117 227.58 439.105C228.571 438.847 229.562 438.59 230.552 438.333H230.515C230.589 438.333 230.626 438.296 230.699 438.296H230.736C244.897 434.402 258.069 427.496 271.203 421.104C274.212 419.377 275.129 417.651 277.257 416.806C278.248 416.402 279.532 416.218 281.44 416.328C288.52 415.851 294.648 411.589 301.582 410.781C306.205 411.296 307.122 413.941 306.241 417.394Z" fill="#080A1E"/>
<path d="M154.057 414.638C154.02 415.851 152.773 417.026 151.525 416.696C151.159 416.549 150.755 416.365 150.388 416.181C145.765 414.124 141.253 411.663 137.547 408.136C136.923 408.504 136.373 407.695 136.887 407.181C138.097 405.234 143.601 410.744 146.206 410.928C147.82 411.516 149.397 412.324 151.085 412.728C151.489 412.838 151.892 412.912 152.296 412.949C152.369 412.949 152.406 412.949 152.479 412.949C153.03 412.985 153.58 413.279 153.837 413.757C154.02 414.051 154.094 414.345 154.057 414.638Z" fill="#080A1E"/>
<path d="M234.698 490.535C231.91 495.678 227.728 518.491 220.316 515.552C217.125 512.907 218.592 507.25 218.409 503.503C188.874 500.307 159.303 496.964 129.878 492.776C103.903 488.808 77.4135 485.245 52.942 475.106C23.6276 463.424 16.7668 439.105 48.1725 423.933C70.4426 413.941 95.7946 411.185 120.009 412.214C119.936 412.214 119.826 412.214 119.752 412.214C120.229 412.214 120.67 412.251 121.147 412.251C122.137 412.324 127.09 412.324 131.346 412.765C136.152 413.279 140.041 414.381 136.079 416.843C134.465 416.659 132.814 416.512 131.199 416.402C125.696 416.035 120.156 416.108 114.653 415.961C114.029 415.961 113.405 415.924 112.781 415.924C112.708 415.924 112.671 415.924 112.598 415.924C112.488 415.924 112.341 415.924 112.231 415.924C92.4192 415.814 72.277 418.716 53.6024 425.439C29.5345 435.358 21.3529 452.403 47.1452 467.428C73.5611 480.396 103.279 483.886 132.006 488.441C151.341 491.417 170.787 493.4 190.195 495.788C191.222 495.898 192.25 496.045 193.24 496.156C196.542 496.56 199.844 496.964 203.109 497.405C227.214 501.299 219.766 495.127 222.078 512.944C225.049 510.703 225.38 506.221 226.333 502.842C227.838 498.103 229.415 493.4 230.956 488.698C230.92 488.808 230.883 488.882 230.883 488.992C233.635 481.02 234.038 480.322 225.416 478.192C217.088 476.392 208.649 474.996 200.211 473.93C200.174 473.93 200.174 473.93 200.138 473.93C199.33 473.82 198.487 473.747 197.679 473.636C180.876 471.506 164.183 468.567 147.599 465.15C134.758 462.065 121.807 459.42 108.892 456.554C99.28 453.946 88.5302 452.587 80.1651 447.113C79.2112 444.248 82.77 443.77 84.7879 444.468C88.0899 444.909 91.4286 444.762 94.7306 445.166C109.92 446.342 124.815 449.354 139.748 452.146H139.784C140.005 452.183 140.188 452.219 140.408 452.256C140.482 452.256 140.555 452.293 140.628 452.293C140.738 452.293 140.848 452.33 140.995 452.366C141.179 452.403 141.362 452.44 141.546 452.477C142.353 452.623 143.16 452.734 144.004 452.881C152.662 454.313 161.358 455.562 170.089 456.077C175.336 462.248 156.771 458.722 148.223 457.179C146.278 456.848 144.848 456.591 144.334 456.591C144.224 456.554 144.114 456.554 144.004 456.518C126.87 453.285 109.883 449.354 92.4559 447.958C126.283 456.518 160.55 464.048 195.111 469.008C205.788 470.257 216.464 471.8 226.957 474.114C238.331 476.539 238.588 480.359 234.698 490.535Z" fill="#080A1E"/>
<path d="M410.108 460.926C410.108 461.183 410.071 461.477 410.035 461.734C407.246 497.625 369.86 516.618 339.078 525.728C314.35 533.406 288.741 537.484 263.279 541.819C244.348 545.015 225.416 548.137 206.338 550.158C200.578 550.966 194.855 551.848 189.094 552.693C187.407 552.729 185.572 553.501 183.885 553.501C183.298 553.501 182.747 553.427 182.197 553.244C180.839 551.884 181.72 550.415 183.078 549.717C183.628 549.423 184.252 549.276 184.839 549.276C188.838 548.468 192.873 547.843 196.909 547.182C201.092 546.448 205.311 545.86 209.53 545.309C210.557 545.162 211.585 545.052 212.612 544.905C219.106 544.096 225.637 543.362 232.094 542.333C271.681 535.574 311.965 530.798 350.085 517.573C363.22 512.614 376.208 506.479 386.847 497.148L386.59 497.368C403.687 483.702 415.208 454.424 395.763 437.893C385.526 427.643 370.631 425.807 356.983 423.455C339.665 420.48 322.128 420.48 304.628 421.472C302.316 421.619 300.005 421.729 297.73 421.913C297.106 422.684 296.263 422.096 295.455 422.206C291.42 419.561 297.547 418.129 306.242 417.357C318.496 416.292 335.96 416.586 337.611 416.696C354.524 418.166 371.952 419.966 387.801 426.358C399.688 432.639 409.668 444.175 410.145 457.951C410.181 458.942 410.181 459.934 410.108 460.926Z" fill="#080A1E"/>
<path d="M343.994 476.245C343.921 476.282 343.884 476.318 343.811 476.355C343.664 476.465 343.481 476.576 343.334 476.686C343.297 476.723 343.26 476.723 343.224 476.759C318.239 493.144 288.961 500.858 261.224 511.291C245.044 516.471 228.718 521.283 212.318 525.839C211.474 526.096 210.594 526.316 209.75 526.573C199.22 529.475 188.654 532.267 178.087 535.022C176.033 539.982 175.959 545.382 175.299 550.635C174.712 555.962 173.978 561.472 174.712 566.836C174.895 566.542 175.042 566.248 175.189 565.917C175.189 565.881 175.225 565.881 175.225 565.844C177.17 561.766 178.638 557.505 180.289 553.354C180.729 551.921 181.242 549.57 183.04 549.717C183.15 549.717 183.297 549.754 183.407 549.79C184.618 550.231 184.471 551.737 183.847 553.537C182.857 556.219 180.802 559.562 180.545 560.995C179.151 563.566 177.023 572.603 173.098 570.877C168.475 565.587 172.621 540.239 175.189 533.516C177.243 529.145 188.544 528.851 193.02 526.977C204.026 524.112 214.849 520.585 225.819 517.573C250.328 511.107 274.065 502.217 297.876 493.621C311.158 488.331 324.586 483.262 336.913 475.914C341.646 472.865 347.149 470.294 350.268 465.445C338.087 461.367 324.696 462.065 312.001 462.249C301.472 462.432 290.905 463.975 280.376 463.681C279.202 463.645 278.028 463.608 276.854 463.498C274.212 463.167 275.313 460.155 277.661 460.669C277.587 460.669 277.514 460.669 277.477 460.669C278.982 460.559 280.486 460.485 281.99 460.375C282.21 460.375 282.43 460.338 282.614 460.338C282.871 460.302 283.127 460.302 283.384 460.302C283.421 460.302 283.458 460.302 283.494 460.302H283.458C295.198 459.31 384.462 449.281 343.994 476.245Z" fill="#080A1E"/>
<path d="M210.484 547.696C208.283 548.21 210.227 530.283 209.75 527.528C209.824 526.095 209.127 522.275 211.621 523.156C212.502 524.295 212.172 525.985 212.465 527.344C212.465 530.908 214.813 547.292 210.484 547.696Z" fill="#080A1E"/>
<path d="M206.888 530.688C205.787 530.688 205.641 529.181 206.448 528.63C207.328 527.969 212.795 526.94 211.217 529.328C209.933 530.1 208.319 530.394 206.888 530.688Z" fill="#080A1E"/>
<path d="M206.191 537.153C205.494 534.251 216.097 534.655 207.916 537.521C207.952 537.521 207.952 537.484 207.989 537.484C207.402 537.851 206.448 537.998 206.191 537.153Z" fill="#080A1E"/>
<path d="M207.218 543.471C205.604 542.259 207.879 541.488 209.016 541.524C209.53 541.488 210.887 540.937 210.887 541.818C210.484 542.333 209.53 542.333 208.979 542.81C209.016 542.81 209.053 542.773 209.053 542.773C208.429 542.994 207.879 543.618 207.218 543.471Z" fill="#080A1E"/>
<path d="M190.085 496.266C190.819 490.608 193.497 485.282 195.258 479.881C195.992 478.522 198.01 469.742 200.174 472.644C200.725 473.085 200.395 474.004 199.771 474.224C197.936 480.726 196.249 487.265 194.084 493.694C193.497 495.017 193.387 497.147 191.663 497.441C190.892 497.588 190.195 497.074 190.085 496.266Z" fill="#080A1E"/>
<path d="M199.514 478.927C198.56 478.412 196.432 477.898 197.056 476.429C197.349 475.804 198.413 475.657 198.67 476.355C199.294 476.576 199.954 476.686 200.578 476.98C201.752 477.641 200.615 479.478 199.514 478.927Z" fill="#080A1E"/>
<path d="M198.34 485.943C198.009 485.833 197.716 485.759 197.386 485.686H197.422C197.386 485.686 197.386 485.686 197.349 485.686C196.725 485.502 196.028 485.466 195.405 485.172C194.707 484.878 194.964 483.813 195.625 483.666C196.028 483.592 196.432 483.776 196.835 483.702C196.835 483.702 196.835 483.702 196.799 483.702C200.174 482.968 200.798 485.906 198.34 485.943Z" fill="#080A1E"/>
<path d="M196.175 491.821C195.111 491.6 192.36 490.682 194.194 489.469C194.157 489.469 194.157 489.506 194.121 489.506C195.001 489.323 195.992 489.616 196.946 489.58C198.45 489.874 197.496 492.262 196.175 491.821Z" fill="#080A1E"/>
<path d="M215.584 188.125C214.373 186.656 218.555 186.435 219.399 186.105C220.426 185.994 220.39 187.611 219.473 187.758C218.188 187.905 216.831 188.456 215.584 188.125Z" fill="#080A1E"/>
<path d="M218.262 189.962C217.235 189.815 217.895 187.978 218.739 188.713C219.032 188.676 219.326 188.639 219.619 188.566C219.619 188.566 219.619 188.566 219.583 188.566C219.619 188.566 219.656 188.566 219.656 188.529H219.619C222.554 187.574 221.931 190.659 218.262 189.962Z" fill="#080A1E"/>
<path d="M236.533 201.791C235.396 200.064 239.762 199.733 240.826 199.55C241.67 199.587 241.633 200.909 240.899 201.093C239.468 201.276 237.927 202.048 236.533 201.791Z" fill="#080A1E"/>
<path d="M240.752 203.884C240.092 203.995 239.578 203.223 240.239 202.856C240.642 202.709 241.083 202.672 241.523 202.562C241.523 202.562 241.523 202.562 241.486 202.562C241.523 202.562 241.596 202.525 241.633 202.525C241.596 202.525 241.56 202.525 241.56 202.562C242.514 202.488 244.531 201.276 244.825 202.709C244.862 203.113 244.568 203.517 244.165 203.591C243.027 203.737 241.89 203.848 240.752 203.884Z" fill="#080A1E"/>
<path d="M243.614 206.676C242.807 206.823 242.036 205.905 242.953 205.427C244.054 205.501 246.622 204.031 246.916 205.611C246.842 207.264 244.678 206.566 243.614 206.676Z" fill="#080A1E"/>
<path d="M379.473 156.495C370.264 152.197 360.615 149.111 351.369 144.923C350.122 143.895 345.462 143.05 346.233 141.029C347.187 140.331 349.572 142.168 350.819 142.352C355.625 144.446 360.688 145.952 365.568 147.899C370.668 149.772 375.804 151.536 380.647 153.96C381.968 154.695 380.941 157.156 379.473 156.495Z" fill="white"/>
<path d="M191.002 258.107C186.857 256.601 192.8 251.531 194.048 249.584C194.928 248.556 202.596 239.041 201.679 244.404C198.817 247.747 196.102 251.237 193.571 254.801C194.414 254.654 195.222 254.433 196.029 254.213C195.955 254.25 195.919 254.25 195.845 254.286C197.423 253.846 199.001 253.405 200.578 252.927C200.541 252.927 200.541 252.927 200.505 252.964C202.449 252.707 209.457 248.849 208.136 253.331C205.421 255.058 201.752 255.499 198.634 256.601C198.707 256.564 198.744 256.564 198.817 256.527C196.286 257.262 193.681 258.254 191.002 258.107Z" fill="white"/>
<path d="M254.107 279.377C251.099 276.217 249.631 271.809 247.613 267.989C247.613 267.989 247.613 267.989 247.613 268.025C247.063 267.217 246.99 265.564 248.311 265.601C251.466 267.878 252.53 272.507 255.025 275.593C256.309 272.103 257.996 268.76 259.317 265.27V265.307C259.794 263.948 260.271 262.588 260.601 261.192C260.601 261.229 260.601 261.229 260.601 261.266C260.601 261.192 260.638 261.119 260.638 261.045C260.638 261.082 260.601 261.119 260.601 261.156C261.005 257.188 265.041 258.694 262.986 262.074C261.629 266.189 259.757 270.119 258.106 274.16C257.226 275.887 256.859 280.185 254.107 279.377Z" fill="white"/>
<path d="M190.892 379.372C188.14 378.454 194.781 369.49 195.735 367.69C198.486 367.066 195.111 372.172 194.744 373.201C193.46 374.633 192.946 379.629 190.892 379.372Z" fill="white"/>
<path d="M184.214 384.295C182.417 382.605 185.719 379.74 186.342 377.976C187.26 376.507 187.957 374.89 188.911 373.458C190.782 372.282 189.131 375.882 188.874 376.544V376.507C187.993 377.939 186.086 385.25 184.214 384.295Z" fill="white"/>
<path d="M176.584 390.466C174.676 388.813 177.941 386.536 178.638 384.919C178.638 384.919 178.638 384.919 178.638 384.956C179.372 384.368 182.307 377.646 182.454 381.246C181.793 383.854 180.069 386.205 178.785 388.593C178.345 389.438 177.794 390.981 176.584 390.466Z" fill="white"/>
<path d="M270.984 383.156C269.81 382.935 270.177 381.613 270.434 380.805C271.094 379.335 271.241 371.951 272.708 372.172C272.892 374.523 272.488 376.984 272.341 379.335C272.011 380.584 272.855 383.082 270.984 383.156Z" fill="white"/>
<path d="M265.444 392.524C263.023 392.156 266.765 384.956 266.728 383.009C266.728 383.046 266.691 383.082 266.691 383.119C266.728 383.009 266.765 382.899 266.765 382.752C266.765 382.788 266.728 382.825 266.728 382.862C267.132 381.907 266.875 380.18 267.939 379.703C268.856 379.776 268.306 380.915 268.306 381.503C267.755 383.523 267.792 392.707 265.444 392.524Z" fill="white"/>
<path d="M259.28 401.01C257.372 399.871 260.013 396.197 259.977 394.324C259.977 394.36 259.94 394.434 259.94 394.471C260.344 393.662 260.821 388.078 262.215 389.695C262.068 391.605 261.811 401.524 259.28 401.01Z" fill="white"/>
<path d="M247.283 419.965C245.375 419.01 247.246 416.696 247.833 415.373C249.411 412.104 250.842 408.761 252.309 405.418C252.86 404.61 253.483 398.622 254.914 401.046C254.511 403.581 254.034 406.153 253.043 408.54C253.08 408.504 253.08 408.43 253.116 408.394C253.08 408.504 253.043 408.614 252.97 408.761C252.933 408.798 252.933 408.871 252.896 408.908C252.896 408.908 252.896 408.908 252.896 408.871C252.896 408.908 252.896 408.908 252.86 408.945C252.86 408.981 252.823 409.055 252.823 409.092C252.823 409.092 252.823 409.092 252.823 409.055C252.786 409.165 252.713 409.312 252.676 409.422C252.713 409.385 252.713 409.312 252.75 409.275C252.566 409.789 252.383 410.304 252.199 410.781C252.162 410.855 252.162 410.892 252.126 410.965C252.126 410.928 252.126 410.928 252.162 410.892C251.209 412.618 249.374 420.553 247.283 419.965Z" fill="white"/>
<path d="M201.862 356.376C202.339 351.71 203.403 347.118 203.844 342.489C203.844 342.563 203.844 342.636 203.807 342.673C204.541 332.828 206.559 323.166 207.806 313.358C208.246 311.999 208.466 298.37 210.631 300.721C209.971 307.59 209.677 314.644 208.723 321.55V321.513C208.723 321.66 208.687 321.807 208.687 321.954V321.917C207.366 331.358 206.559 340.873 204.944 350.277C204.247 352.004 204.724 357.074 202.816 357.478C202.266 357.551 201.826 356.963 201.862 356.376Z" fill="white"/>
<path d="M214.593 299.288C212.538 298.443 213.932 294.733 215.62 294.219C218.995 294.072 217.381 299.949 214.593 299.288Z" fill="white"/>
<path d="M234.882 277.797C233.341 275.997 235.689 273.169 237.744 273.499C240.605 274.785 237.267 279.818 234.882 277.797Z" fill="white"/>
<path d="M211.401 332.019C209.163 331.101 210.888 326.803 212.942 326.84C215.511 327.427 213.713 332.57 211.401 332.019Z" fill="white"/>
<path d="M204.871 366.809C203.66 365.89 205.384 361.959 206.778 363.282C207.035 363.355 207.145 363.649 207.109 363.906C208.65 365.266 206.558 368.241 204.871 366.809Z" fill="white"/>
<path d="M200.357 405.822C199.513 404.646 200.174 402.552 201.018 401.561C201.678 401.046 202.412 401.891 202.228 402.589C203.916 403.544 202.118 407.291 200.357 405.822Z" fill="white"/>
<path d="M180.142 319.786C179.775 318.133 175.152 308.876 177.573 308.766C177.573 308.766 177.573 308.766 177.537 308.766C177.94 308.802 178.05 309.28 177.904 309.611C178.197 310.455 178.564 311.227 178.894 312.035C178.894 311.998 178.858 311.962 178.858 311.925C179.885 314.092 180.912 316.223 182.16 318.28C182.967 319.566 181.022 321.256 180.142 319.786Z" fill="white"/>
<path d="M186.709 319.346C186.232 318.685 185.902 317.95 185.572 317.215C185.572 317.252 185.608 317.289 185.608 317.325C185.572 317.252 185.535 317.178 185.498 317.068C185.498 317.105 185.535 317.142 185.535 317.178C185.461 316.517 180.325 306.966 182.636 309.06V309.023C182.636 308.986 182.636 308.949 182.6 308.913C183.48 310.603 184.581 312.219 185.608 313.835C185.572 313.799 185.572 313.762 185.572 313.762C185.718 313.982 185.828 314.203 185.975 314.423C185.975 314.423 185.938 314.386 185.938 314.35C186.452 316.003 189.314 317.693 188.103 319.419C187.699 319.823 187.039 319.823 186.709 319.346Z" fill="white"/>
<path d="M231.507 323.644C231.25 323.423 230.993 323.166 230.773 322.909C230.81 322.946 230.846 322.982 230.883 323.019C229.195 320.999 227.508 318.648 226.811 316.113V316.15C226.737 315.562 227.691 315.341 227.728 316.039C228.352 317.178 229.305 318.17 230.039 319.235C230.81 320.705 234.002 321.293 233.048 323.276C232.754 323.717 232.02 324.011 231.507 323.644Z" fill="white"/>
<path d="M239.394 324.231C237.523 324.011 229.525 317.105 231.653 315.635C231.947 315.562 232.167 315.819 232.167 316.076C233.524 318.207 235.579 319.897 237.963 320.815C239.138 321.366 241.522 321.329 240.972 323.24C240.825 323.864 240.091 324.452 239.394 324.231Z" fill="white"/>
<path d="M246.88 323.239C245.559 322.358 237.707 318.647 240.056 316.884C240.312 316.774 240.643 316.884 240.789 317.104C242.367 318.684 244.385 319.603 246.476 320.374C249.191 320.815 249.081 323.607 246.88 323.239Z" fill="white"/>
<path d="M104.82 169.389C103.535 167.479 106.434 167.148 107.608 166.524C115.533 162.483 123.788 158.589 130.832 153.152C133.437 151.609 134.134 155.246 130.979 156.789C127.016 159.654 108.709 171.079 104.82 169.389Z" fill="white"/>
<path d="M170.897 277.026C170.75 272.985 171.557 268.907 171.374 264.866C171.961 261.964 174.823 263.544 173.905 266.042V266.005C173.538 269.752 173.355 273.646 172.291 277.246C171.924 277.724 171.08 277.687 170.897 277.026Z" fill="white"/>
<path d="M168.732 270.707C168.659 268.026 168.695 265.307 168.659 262.589C168.659 262.625 168.659 262.625 168.659 262.662C168.659 261.744 168.585 260.862 168.365 259.98C168.145 258.842 169.869 257.997 170.346 259.246C171.08 262.956 170.31 266.887 169.723 270.56C169.723 270.56 169.723 270.56 169.723 270.524C169.649 271.038 168.915 271.222 168.732 270.707Z" fill="white"/>
<path d="M165.247 265.968C164.843 263.544 164.697 261.046 164 258.695C163.743 257.446 162.275 255.719 163.743 254.764C166.128 252.67 168.035 269.532 165.247 265.968Z" fill="white"/>
<path d="M284.155 221.665C282.944 207.595 278.468 193.047 268.122 183.018C264.343 179.602 249.557 167.773 252.089 162.52C253.336 162.336 252.822 164.246 253.373 164.908C253.373 164.871 253.336 164.834 253.336 164.834C254.18 166.45 255.391 167.846 256.565 169.242C256.528 169.206 256.528 169.169 256.491 169.169C260.894 174.532 267.168 177.839 271.974 182.761C277.037 188.382 281.293 195.068 283.237 202.452C283.824 203.995 288.667 226.918 284.155 221.665Z" fill="white"/>
<path d="M272.745 227.836C272.745 218.065 274.029 207.521 269.7 198.411C269.7 198.447 269.737 198.484 269.737 198.521C269.443 197.198 267.352 195.582 268.489 194.296C268.856 194.002 269.406 194.149 269.59 194.627C271.351 198.558 273.846 202.268 274.359 206.64C274.359 206.603 274.359 206.566 274.323 206.529C274.323 206.603 274.359 206.713 274.359 206.787C274.359 206.75 274.359 206.676 274.323 206.64C274.69 208.146 277.001 234.963 272.745 227.836Z" fill="white"/>
<path d="M377.822 357.074C369.09 351.747 358.817 347.522 354.818 337.273C345.939 321.329 352.323 297.341 334.309 286.981C329.136 282.72 318.569 283.675 316.515 276.438C316.551 276.108 316.771 275.74 317.138 275.74C317.835 275.74 317.615 276.548 317.872 276.989C317.872 276.953 317.835 276.916 317.835 276.916C318.202 277.651 318.826 278.165 319.486 278.606C319.45 278.606 319.413 278.569 319.413 278.569C322.275 280.369 325.65 280.92 328.879 281.765C334.602 283.602 340.326 286.724 343.774 291.794C349.314 299.031 350.819 307.994 351.662 316.848C353.607 329.301 357.569 343.261 369.677 349.322C371.071 350.314 384.316 356.118 377.822 357.074Z" fill="white"/>
<path d="M362.596 367.874C361.678 365.78 360.284 363.943 358.523 362.474C358.56 362.511 358.633 362.547 358.67 362.584C357.349 361.445 355.955 360.453 354.451 359.535C354.451 359.535 354.487 359.535 354.487 359.572C354.304 359.461 354.084 359.351 353.9 359.204C353.9 359.204 353.937 359.204 353.937 359.241C340.729 351.857 334.089 336.722 334.565 321.954C334.565 321.991 334.565 322.027 334.565 322.064C334.382 316.737 334.639 311.374 333.942 306.121C333.905 305.423 333.318 304.321 334.162 303.917C334.529 303.77 334.822 304.064 334.896 304.431C336.29 312.586 336.07 320.889 337.024 329.081C337.024 329.044 337.024 329.044 337.024 329.007C337.097 329.411 337.134 329.779 337.207 330.183C339.041 340.91 345.279 350.865 354.818 356.339C354.818 356.339 354.781 356.339 354.781 356.302C354.928 356.376 355.038 356.449 355.185 356.523C355.148 356.523 355.148 356.486 355.111 356.486C355.148 356.523 355.221 356.559 355.258 356.596C355.258 356.596 355.258 356.596 355.221 356.596C358.413 358.506 361.568 360.71 363.66 363.833C363.66 363.796 363.623 363.796 363.623 363.76C363.66 363.796 363.696 363.87 363.733 363.907C363.733 363.907 363.733 363.87 363.696 363.87C364.393 365.119 365.934 366.992 364.393 368.205C363.806 368.682 362.926 368.535 362.596 367.874Z" fill="white"/>
<path d="M293.438 368.719C285.439 353.253 297.84 337.75 301.986 323.129C304.591 313.321 302.83 305.423 299.748 296.128C299.638 295.394 300.775 295.026 300.885 295.908C301.362 298.7 303.05 301.088 304.004 303.733C305.398 308.178 305.765 312.99 305.362 317.619C305.362 317.582 305.362 317.545 305.362 317.509C305.362 317.656 305.325 317.766 305.325 317.913C305.325 318.023 305.288 318.096 305.288 318.207C304.041 334.775 287.788 349.91 295.345 366.955C295.345 366.919 295.309 366.919 295.309 366.882C296.336 368.057 294.575 370.115 293.438 368.719Z" fill="white"/>
<path d="M324.439 374.266C309.8 367.837 308.7 350.094 310.974 336.281C311.598 334.812 310.717 331.175 312.625 330.917C313.396 331.028 313.432 331.873 313.286 332.46C313.286 332.424 313.286 332.424 313.286 332.387C313.249 332.607 313.249 332.828 313.212 333.085C313.212 333.048 313.212 332.975 313.212 332.938C311.781 344.363 310.717 357.808 319.449 366.662C321.687 368.976 324.622 370.666 327.704 371.584C330.309 373.274 327.741 376.213 324.439 374.266Z" fill="white"/>
<path d="M339.959 371.474C333.025 369.931 326.971 364.127 324.99 357.294C324.843 356.082 323.816 353.877 325.063 353.106C326.347 353.216 325.504 355.273 326.054 356.155C328.109 362.363 333.979 367.47 340.436 368.498C342.197 368.792 341.647 371.694 339.959 371.474Z" fill="white"/>
<path d="M157.065 580.832C156.772 580.245 157.432 579.694 157.799 579.289C157.762 579.326 157.762 579.326 157.726 579.363C159.303 576.828 161.101 579.326 158.57 580.428C158.57 580.428 158.606 580.428 158.606 580.392C158.423 580.502 158.276 580.612 158.093 580.722C158.129 580.722 158.129 580.685 158.166 580.685C157.836 580.906 157.359 581.347 157.065 580.832Z" fill="white"/>
<path d="M261.922 434.329C260.858 433.08 262.802 432.198 263.536 431.39C265.004 430.068 266.324 428.414 268.085 427.496C270.103 428.01 266.618 430.362 266.178 431.243C264.967 432.198 263.756 435.247 261.922 434.329Z" fill="white"/>
<path d="M254.144 442.374C254.217 440.097 257.702 440.28 259.207 439.142C262.839 437.635 265.921 435.248 268.893 432.75L268.856 432.786C272.195 431.317 266.985 436.717 266.324 437.231C264.673 438.701 255.391 445.313 254.144 442.374Z" fill="white"/>
<path d="M259.207 447.444C258.877 445.975 260.895 446.011 261.739 445.387C261.739 445.387 261.702 445.387 261.702 445.424C263.059 445.02 264.637 442.779 265.921 443.146C266.618 443.66 259.391 449.538 259.207 447.444Z" fill="white"/>
<path d="M151.011 424.117C150.424 421.912 149.874 419.635 149.58 417.394C151.488 414.198 152.222 422.059 153.139 423.125C153.616 424.374 151.561 425.513 151.011 424.117Z" fill="white"/>
<path d="M154.717 434.255C153.653 434.108 153.873 432.896 154.24 432.198C155.304 429.406 155.194 426.284 155.157 423.345C156.808 421.251 157.395 435.284 154.717 434.255Z" fill="white"/>
</g>
<defs>
<clipPath id="clip0">
<rect width="480" height="581.053" fill="white"/>
</clipPath>
</defs>
</svg>
