<svg width="97" height="117" viewBox="0 0 97 117" fill="none" xmlns="http://www.w3.org/2000/svg">
<g clip-path="url(#clip0)">
<path d="M11.9 5.82468C11.9 9.11688 9.36809 11.6494 6.0766 11.6494C2.53192 11.9026 0 9.11688 0 5.82468C0 2.53247 2.53191 0 5.8234 0C9.11489 0 11.9 2.53247 11.9 5.82468Z" fill="#AB7051"/>
<path d="M47.5999 5.82467C47.5999 9.11688 45.068 11.6493 41.7765 11.6493C38.485 11.6493 35.9531 9.11688 35.9531 5.82467C35.9531 2.53247 38.485 0 41.7765 0C44.8148 0 47.5999 2.53247 47.5999 5.82467Z" fill="#AB7051"/>
<path d="M83.2999 5.82467C83.2999 9.11688 80.768 11.6493 77.4765 11.6493C74.185 11.6493 71.6531 9.11688 71.6531 5.82467C71.6531 2.53247 74.185 0 77.4765 0C80.5148 0 83.2999 2.53247 83.2999 5.82467Z" fill="#AB7051"/>
<path d="M5.8234 45.5842C2.53191 45.5842 0 43.0517 0 39.7595C0 36.4673 2.53191 33.9348 5.8234 33.9348C9.11489 33.9348 11.6468 36.4673 11.6468 39.7595C11.6468 43.0517 9.11489 45.5842 5.8234 45.5842Z" fill="#AB7051"/>
<path d="M5.8234 81.2922C2.53191 81.2922 0 78.7597 0 75.4675C0 72.1753 2.53191 69.6428 5.8234 69.6428C9.11489 69.6428 11.6468 72.1753 11.6468 75.4675C11.6468 78.7597 9.11489 81.2922 5.8234 81.2922Z" fill="#AB7051"/>
<path d="M5.8234 117C2.53191 117 0 114.468 0 111.176C0 107.883 2.53191 105.351 5.8234 105.351C9.11489 105.351 11.6468 107.883 11.6468 111.176C11.9 114.468 9.11489 117 5.8234 117Z" fill="#AB7051"/>
<path d="M41.5234 45.5842C38.2319 45.5842 35.7 43.0517 35.7 39.7595C35.7 36.4673 38.2319 33.9348 41.5234 33.9348C44.8148 33.9348 47.3468 36.4673 47.3468 39.7595C47.3468 43.0517 44.8148 45.5842 41.5234 45.5842Z" fill="#AB7051"/>
<path d="M41.5234 81.2922C38.2319 81.2922 35.7 78.7597 35.7 75.4675C35.7 72.1753 38.2319 69.6428 41.5234 69.6428C44.8148 69.6428 47.3468 72.1753 47.3468 75.4675C47.3468 78.7597 44.8148 81.2922 41.5234 81.2922Z" fill="#AB7051"/>
<path d="M41.5234 117C38.2319 117 35.7 114.468 35.7 111.176C35.7 107.883 38.2319 105.351 41.5234 105.351C44.8148 105.351 47.3468 107.883 47.3468 111.176C47.6 114.468 44.8148 117 41.5234 117Z" fill="#AB7051"/>
<path d="M77.2233 45.5842C73.9318 45.5842 71.3999 43.0517 71.3999 39.7595C71.3999 36.4673 73.9318 33.9348 77.2233 33.9348C80.5148 33.9348 83.0467 36.4673 83.0467 39.7595C83.0467 43.0517 80.5148 45.5842 77.2233 45.5842Z" fill="#AB7051"/>
<path d="M77.2233 81.2922C73.9318 81.2922 71.3999 78.7597 71.3999 75.4675C71.3999 72.1753 73.9318 69.6428 77.2233 69.6428C80.5148 69.6428 83.0467 72.1753 83.0467 75.4675C83.0467 78.7597 80.5148 81.2922 77.2233 81.2922Z" fill="#AB7051"/>
<path d="M77.2233 117C73.9318 117 71.3999 114.468 71.3999 111.176C71.3999 107.883 73.9318 105.351 77.2233 105.351C80.5148 105.351 83.0467 107.883 83.0467 111.176C83.2999 114.468 80.5148 117 77.2233 117Z" fill="#AB7051"/>
</g>
<defs>
<clipPath id="clip0">
<rect width="119" height="117" fill="#AB7051"/>
</clipPath>
</defs>
</svg>
