<svg width="25" height="25" viewBox="0 0 25 25" fill="none" xmlns="http://www.w3.org/2000/svg">
<circle cx="12.5" cy="12.5" r="12.5" fill="#AB7051"/>
<path d="M12.8136 18.0995C12.6196 18.364 12.3696 18.5817 12.0818 18.737C11.794 18.8922 11.4756 18.9812 11.1495 18.9973C10.8233 19.0135 10.4977 18.9565 10.1962 18.8304C9.89462 18.7043 9.62465 18.5124 9.4058 18.2684L5.43786 13.834C5.1354 13.4958 4.97874 13.0506 5.00232 12.5961C5.02591 12.1417 5.22782 11.7153 5.56364 11.4107C5.89945 11.1062 6.34166 10.9484 6.79298 10.9722C7.24431 10.9959 7.66777 11.1992 7.97023 11.5374L10.7776 14.6715C10.7978 14.6953 10.8231 14.7141 10.8516 14.7264C10.8801 14.7387 10.911 14.7442 10.942 14.7425C10.9723 14.7408 11.0019 14.7324 11.0286 14.7178C11.0553 14.7032 11.0784 14.6828 11.0963 14.658L16.8687 6.77869C16.9953 6.58328 17.16 6.41591 17.353 6.28679C17.5459 6.15768 17.763 6.06953 17.9909 6.02775C18.2188 5.98597 18.4528 5.99142 18.6785 6.04377C18.9043 6.09613 19.1171 6.19429 19.3039 6.33226C19.4907 6.47022 19.6476 6.64509 19.765 6.84618C19.8824 7.04727 19.9578 7.27036 19.9867 7.50181C20.0156 7.73325 19.9973 7.9682 19.9329 8.19228C19.8686 8.41637 19.7595 8.62489 19.6124 8.8051L12.8136 18.0995Z" fill="white"/>
</svg>
