<svg width="25" height="25" viewBox="0 0 25 25" fill="none" xmlns="http://www.w3.org/2000/svg">
<path d="M12.5 0C5.59827 0 0 5.61714 0 12.5C0 19.4182 5.63522 25 12.5 25C19.3648 25 25 19.4182 25 12.5C25 5.62107 19.4057 0 12.5 0ZM12.5 15.0943C11.9869 15.0943 11.4853 14.9422 11.0587 14.6571C10.632 14.372 10.2995 13.9669 10.1031 13.4928C9.90678 13.0188 9.85541 12.4971 9.95551 11.9939C10.0556 11.4906 10.3027 11.0283 10.6655 10.6655C11.0283 10.3027 11.4906 10.0556 11.9939 9.95551C12.4971 9.85541 13.0188 9.90678 13.4928 10.1031C13.9669 10.2995 14.372 10.632 14.6571 11.0587C14.9422 11.4853 15.0943 11.9869 15.0943 12.5C15.0943 13.1881 14.821 13.8479 14.3345 14.3345C13.8479 14.821 13.1881 15.0943 12.5 15.0943ZM2.35849 12.5C2.35721 11.119 2.63951 9.75249 3.18789 8.48506L7.74764 11.1164C7.48349 12.0199 7.48349 12.9801 7.74764 13.8836L3.18789 16.5149C2.63951 15.2475 2.35721 13.881 2.35849 12.5ZM17.2547 11.1164L21.8145 8.48506C22.3616 9.75287 22.6439 11.1192 22.6439 12.5C22.6439 13.8808 22.3616 15.2471 21.8145 16.5149L17.2547 13.8836C17.5189 12.9801 17.5189 12.0199 17.2547 11.1164ZM20.6297 6.44654L16.07 9.07783C15.4209 8.39779 14.5917 7.91652 13.6792 7.69025V2.42767C15.0503 2.5892 16.374 3.02896 17.5691 3.72001C18.7643 4.41106 19.8057 5.33885 20.6297 6.44654ZM11.3208 2.42767V7.69025C10.4074 7.91531 9.57712 8.39578 8.92689 9.07547L4.36714 6.44418C5.1917 5.33657 6.23377 4.40901 7.42947 3.71836C8.62517 3.0277 9.94932 2.5885 11.3208 2.42767ZM4.37028 18.5535L8.93003 15.9222C9.5791 16.6022 10.4083 17.0835 11.3208 17.3097V22.5723C9.94968 22.4108 8.62603 21.971 7.43088 21.28C6.23574 20.5889 5.19427 19.6611 4.37028 18.5535ZM13.6792 22.5723V17.3097C14.5926 17.0847 15.4229 16.6042 16.0731 15.9245L20.6329 18.5558C19.8083 19.6634 18.7662 20.591 17.5705 21.2816C16.3748 21.9723 15.0507 22.4115 13.6792 22.5723Z" fill="#AB7051"/>
</svg>
