<svg width="243" height="243" viewBox="0 0 243 243" fill="none" xmlns="http://www.w3.org/2000/svg">
<g clip-path="url(#clip0)">
<path d="M239.903 148.656C254.948 83.265 214.133 18.0588 148.742 3.01442C83.3502 -12.03 18.1441 28.7844 3.09967 94.1759C-11.9447 159.567 28.8696 224.774 94.2611 239.818C159.653 254.862 224.859 214.048 239.903 148.656Z" fill="#DBD1C5"/>
<path d="M17.6077 14.3665C15.3401 14.3665 13.5957 12.6239 13.5957 10.3585C13.5957 8.09317 15.3401 6.35059 17.6077 6.35059C19.8754 6.35059 21.6197 8.09317 21.6197 10.3585C21.6197 12.6239 19.8754 14.3665 17.6077 14.3665Z" fill="#AB7051"/>
<path d="M17.6077 38.9373C15.3401 38.9373 13.5957 37.1947 13.5957 34.9293C13.5957 32.664 15.3401 30.9214 17.6077 30.9214C19.8754 30.9214 21.6197 32.664 21.6197 34.9293C21.6197 37.1947 19.8754 38.9373 17.6077 38.9373Z" fill="#AB7051"/>
<path d="M17.6077 63.5076C15.3401 63.5076 13.5957 61.765 13.5957 59.4997C13.5957 57.2343 15.3401 55.4917 17.6077 55.4917C19.8754 55.4917 21.6197 57.2343 21.6197 59.4997C21.7942 61.765 19.8754 63.5076 17.6077 63.5076Z" fill="#AB7051"/>
<path d="M42.2034 14.3665C39.9358 14.3665 38.1914 12.6239 38.1914 10.3585C38.1914 8.09317 39.9358 6.35059 42.2034 6.35059C44.4711 6.35059 46.2154 8.09317 46.2154 10.3585C46.2154 12.6239 44.4711 14.3665 42.2034 14.3665Z" fill="#AB7051"/>
<path d="M42.2034 38.9373C39.9358 38.9373 38.1914 37.1947 38.1914 34.9293C38.1914 32.664 39.9358 30.9214 42.2034 30.9214C44.4711 30.9214 46.2154 32.664 46.2154 34.9293C46.2154 37.1947 44.4711 38.9373 42.2034 38.9373Z" fill="#AB7051"/>
<path d="M42.2034 63.5076C39.9358 63.5076 38.1914 61.765 38.1914 59.4997C38.1914 57.2343 39.9358 55.4917 42.2034 55.4917C44.4711 55.4917 46.2154 57.2343 46.2154 59.4997C46.3899 61.765 44.4711 63.5076 42.2034 63.5076Z" fill="#AB7051"/>
<path d="M66.7981 14.3665C64.5305 14.3665 62.7861 12.6239 62.7861 10.3585C62.7861 8.09317 64.5305 6.35059 66.7981 6.35059C69.0658 6.35059 70.8102 8.09317 70.8102 10.3585C70.8102 12.6239 69.0658 14.3665 66.7981 14.3665Z" fill="#AB7051"/>
<path d="M66.7981 38.9373C64.5305 38.9373 62.7861 37.1947 62.7861 34.9293C62.7861 32.664 64.5305 30.9214 66.7981 30.9214C69.0658 30.9214 70.8102 32.664 70.8102 34.9293C70.8102 37.1947 69.0658 38.9373 66.7981 38.9373Z" fill="#AB7051"/>
<path d="M66.7981 63.5076C64.5305 63.5076 62.7861 61.765 62.7861 59.4997C62.7861 57.2343 64.5305 55.4917 66.7981 55.4917C69.0658 55.4917 70.8102 57.2343 70.8102 59.4997C70.9846 61.765 69.0658 63.5076 66.7981 63.5076Z" fill="#AB7051"/>
</g>
<defs>
<clipPath id="clip0">
<rect width="243" height="243" fill="white"/>
</clipPath>
</defs>
</svg>
