<svg width="28" height="29" viewBox="0 0 28 29" fill="none" xmlns="http://www.w3.org/2000/svg">
<path d="M19.6351 15.8002L28 14.6647L19.945 13.6325L27.0706 9.65827L18.8606 11.6712L23.9725 4.9615L17.5181 9.91634L19.7384 2.12279L15.4011 9.34859L14.2651 0.987305L13.1808 9.03892L9.25649 1.91634L11.2703 10.1228L4.55769 4.9615L9.51466 11.4647L1.71776 9.19376L8.94668 13.5809L0.530151 14.6647L8.63686 15.7486L1.51122 19.7228L9.7212 17.6583L4.55769 24.368L11.0637 19.4131L8.79177 27.2583L13.1808 20.0325L14.2651 28.3938L15.3494 20.3421L19.3253 27.4647L17.2599 19.2583L23.9725 24.368L19.0155 17.9163L26.8641 20.1357L19.6351 15.8002Z" fill="#FF6633"/>
</svg>
